<svg xmlns="http://www.w3.org/2000/svg" width="136" height="41" viewBox="0 0 136 41" fill="none">
  <path d="M124.499 0.50013H11.0066C10.5929 0.50013 10.1842 0.50013 9.7716 0.50213C9.42621 0.50413 9.08358 0.50994 8.73488 0.51483C7.97733 0.522732 7.22157 0.581806 6.47416 0.69154C5.7278 0.803663 5.00482 1.01505 4.32967 1.31854C3.65534 1.6246 3.0392 2.0223 2.50357 2.4972C1.96514 2.97077 1.51632 3.51815 1.17436 4.11829C0.831453 4.71724 0.593683 5.35907 0.469258 6.02161C0.343649 6.68332 0.276059 7.35265 0.267092 8.02361C0.256622 8.33021 0.255517 8.63783 0.25 8.94447V32.0587C0.255517 32.3692 0.256622 32.67 0.267092 32.9806C0.276061 33.6516 0.343652 34.3209 0.469258 34.9825C0.593339 35.6455 0.831124 36.2877 1.17436 36.8868C1.51616 37.485 1.96505 38.0302 2.50357 38.5011C3.03717 38.9781 3.65371 39.3761 4.32967 39.6798C5.00481 39.9841 5.72772 40.1968 6.47416 40.3106C7.2217 40.4195 7.97738 40.4786 8.73488 40.4874C9.08358 40.4942 9.42621 40.4981 9.7716 40.4981C10.1842 40.5001 10.593 40.5001 11.0066 40.5001H124.499C124.905 40.5001 125.317 40.5001 125.722 40.4981C126.066 40.4981 126.419 40.4942 126.762 40.4874C127.518 40.4791 128.273 40.42 129.019 40.3106C129.768 40.196 130.493 39.9834 131.171 39.6798C131.847 39.3759 132.463 38.978 132.996 38.5011C133.533 38.0284 133.983 37.4836 134.329 36.8868C134.67 36.2872 134.905 35.6451 135.027 34.9825C135.153 34.3208 135.223 33.6516 135.237 32.9806C135.241 32.67 135.241 32.3692 135.241 32.0587C135.25 31.6954 135.25 31.3341 135.25 30.9649V10.0363C135.25 9.67005 135.25 9.30677 135.241 8.94447C135.241 8.63783 135.241 8.33021 135.237 8.02357C135.223 7.35255 135.153 6.68337 135.027 6.02157C134.905 5.35941 134.669 4.71763 134.329 4.11825C133.633 2.91533 132.528 1.93616 131.171 1.31845C130.493 1.0157 129.768 0.80437 129.019 0.69145C128.273 0.581233 127.519 0.522138 126.762 0.51469C126.419 0.50981 126.066 0.50395 125.722 0.502C125.317 0.5 124.905 0.5 124.499 0.5V0.50013Z" fill="#A6A6A6"/>
  <path d="M9.68001 39.6281C9.33569 39.6281 8.99969 39.6242 8.65807 39.6174C7.95037 39.6093 7.24433 39.5547 6.54574 39.4543C5.89433 39.355 5.2633 39.1703 4.67345 38.9063C4.089 38.6444 3.55594 38.3011 3.09469 37.8895C2.62676 37.4826 2.23718 37.0108 1.9414 36.4927C1.64236 35.9711 1.43541 35.4121 1.32775 34.8351C1.21149 34.2151 1.14859 33.5882 1.13959 32.9597C1.13243 32.7488 1.12305 32.0464 1.12305 32.0464V8.94104C1.12305 8.94104 1.13304 8.24949 1.13965 8.04631C1.14827 7.41886 1.2108 6.7929 1.32671 6.17385C1.43457 5.59525 1.64168 5.03463 1.94088 4.5114C2.23557 3.99361 2.62299 3.52143 3.0881 3.11316C3.55269 2.70102 4.08745 2.35593 4.67289 2.09048C5.26139 1.82731 5.89123 1.64391 6.54132 1.54642C7.24221 1.44497 7.9507 1.39012 8.66085 1.38233L9.68056 1.37012H125.82L126.852 1.38282C127.556 1.39022 128.258 1.44458 128.952 1.54544C129.609 1.64415 130.245 1.82883 130.84 2.09341C132.013 2.62837 132.968 3.47472 133.57 4.51384C133.864 5.03346 134.068 5.58951 134.174 6.16311C134.292 6.78724 134.357 7.41812 134.371 8.05071C134.374 8.33397 134.374 8.63824 134.374 8.94104C134.383 9.31612 134.383 9.67312 134.383 10.0331V30.9661C134.383 31.3295 134.383 31.6841 134.374 32.0415C134.374 32.3668 134.374 32.6648 134.37 32.9714C134.357 33.5927 134.292 34.2123 134.177 34.8253C134.071 35.4065 133.865 35.9699 133.566 36.4957C133.268 37.0082 132.881 37.4759 132.419 37.8817C131.957 38.2955 131.423 38.6409 130.837 38.9044C130.244 39.1704 129.608 39.3558 128.952 39.4543C128.254 39.5553 127.547 39.6098 126.84 39.6174C126.509 39.6242 126.162 39.6281 125.826 39.6281L124.6 39.6301L9.68001 39.6281Z" fill="black"/>
  <path d="M33.0473 20.8006C33.0581 19.9659 33.2798 19.1475 33.6918 18.4216C34.1038 17.6956 34.6928 17.0857 35.4039 16.6485C34.9521 16.0034 34.3562 15.4724 33.6634 15.0979C32.9705 14.7233 32.1999 14.5155 31.4127 14.4908C29.7335 14.3146 28.1055 15.4957 27.2498 15.4957C26.3775 15.4957 25.06 14.5083 23.6413 14.5375C22.7236 14.5672 21.8293 14.834 21.0454 15.3121C20.2615 15.7901 19.6149 16.4631 19.1684 17.2654C17.2344 20.6138 18.677 25.5349 20.5296 28.2415C21.4565 29.5668 22.5398 31.0473 23.9572 30.9948C25.3443 30.9372 25.8623 30.1103 27.5366 30.1103C29.1954 30.1103 29.6814 30.9948 31.1276 30.9614C32.616 30.9372 33.5538 29.6302 34.4481 28.2923C35.1141 27.3479 35.6266 26.3042 35.9666 25.1997C35.1018 24.834 34.3639 24.2218 33.8448 23.4395C33.3257 22.6572 33.0483 21.7394 33.0473 20.8006Z" fill="white"/>
  <path d="M30.3156 12.7108C31.1272 11.7366 31.527 10.4844 31.4302 9.22021C30.1903 9.35044 29.0451 9.94299 28.2226 10.8798C27.8204 11.3375 27.5124 11.8699 27.3162 12.4467C27.12 13.0235 27.0393 13.6333 27.0789 14.2412C27.699 14.2476 28.3125 14.1132 28.8732 13.8481C29.4338 13.583 29.9271 13.1942 30.3156 12.7108Z" fill="white"/>
  <path d="M50.5808 27.6397H45.8474L44.7107 30.9961H42.7058L47.1892 18.5781H49.2722L53.7556 30.9961H51.7165L50.5808 27.6397ZM46.3376 26.0908H50.0896L48.24 20.6436H48.1883L46.3376 26.0908Z" fill="white"/>
  <path d="M63.4383 26.4697C63.4383 29.2832 61.9324 31.0908 59.6599 31.0908C59.0843 31.1209 58.5118 30.9883 58.008 30.7082C57.5042 30.428 57.0895 30.0117 56.8113 29.5068H56.7683V33.9912H54.9099V21.9423H56.7088V23.4482H56.743C57.0339 22.9457 57.4556 22.5316 57.9633 22.2497C58.4709 21.9679 59.0454 21.8289 59.6258 21.8476C61.9236 21.8476 63.4383 23.664 63.4383 26.4697ZM61.5281 26.4697C61.5281 24.6367 60.5808 23.4316 59.1355 23.4316C57.7156 23.4316 56.7605 24.6621 56.7605 26.4697C56.7605 28.2939 57.7156 29.5156 59.1355 29.5156C60.5808 29.5156 61.5281 28.3193 61.5281 26.4697Z" fill="white"/>
  <path d="M73.4031 26.4697C73.4031 29.2832 71.8972 31.0908 69.6248 31.0908C69.0491 31.1209 68.4766 30.9883 67.9728 30.7081C67.469 30.428 67.0543 30.0117 66.7762 29.5068H66.7332V33.9912H64.8748V21.9423H66.6736V23.4482H66.7078C66.9987 22.9457 67.4204 22.5315 67.9281 22.2497C68.4357 21.9679 69.0103 21.8289 69.5906 21.8476C71.8885 21.8476 73.4031 23.664 73.4031 26.4697ZM71.4929 26.4697C71.4929 24.6367 70.5457 23.4316 69.1004 23.4316C67.6804 23.4316 66.7254 24.6621 66.7254 26.4697C66.7254 28.2939 67.6804 29.5156 69.1004 29.5156C70.5457 29.5156 71.493 28.3193 71.493 26.4697H71.4929Z" fill="white"/>
  <path d="M79.989 27.5362C80.1267 28.7676 81.323 29.5762 82.9578 29.5762C84.5242 29.5762 85.6512 28.7676 85.6512 27.6572C85.6512 26.6934 84.9715 26.1162 83.3621 25.7207L81.7527 25.333C79.4725 24.7822 78.4138 23.7158 78.4138 21.9854C78.4138 19.8428 80.281 18.3711 82.9324 18.3711C85.5564 18.3711 87.3553 19.8428 87.4158 21.9854H85.5398C85.4275 20.7461 84.4031 19.9981 82.906 19.9981C81.4089 19.9981 80.3845 20.7549 80.3845 21.8565C80.3845 22.7344 81.0388 23.251 82.6394 23.6465L84.0076 23.9824C86.5554 24.5849 87.614 25.6084 87.614 27.4248C87.614 29.748 85.7634 31.2031 82.8201 31.2031C80.0662 31.2031 78.2068 29.7822 78.0867 27.5361L79.989 27.5362Z" fill="white"/>
  <path d="M91.6247 19.7998V21.9424H93.3464V23.4141H91.6247V28.4053C91.6247 29.1807 91.9695 29.542 92.7263 29.542C92.9307 29.5384 93.1348 29.5241 93.3376 29.499V30.9619C92.9974 31.0255 92.6515 31.0543 92.3054 31.0478C90.4724 31.0478 89.7576 30.3593 89.7576 28.6035V23.4141H88.4412V21.9424H89.7575V19.7998H91.6247Z" fill="white"/>
  <path d="M94.3435 26.4697C94.3435 23.6211 96.0212 21.8311 98.6375 21.8311C101.262 21.8311 102.932 23.6211 102.932 26.4697C102.932 29.3262 101.271 31.1084 98.6375 31.1084C96.0046 31.1084 94.3435 29.3262 94.3435 26.4697ZM101.039 26.4697C101.039 24.5156 100.143 23.3623 98.6374 23.3623C97.1316 23.3623 96.2371 24.5244 96.2371 26.4697C96.2371 28.4316 97.1316 29.5762 98.6374 29.5762C100.143 29.5762 101.039 28.4316 101.039 26.4697H101.039Z" fill="white"/>
  <path d="M104.465 21.9425H106.237V23.4835H106.28C106.4 23.0022 106.682 22.5769 107.079 22.279C107.475 21.9811 107.962 21.8288 108.458 21.8478C108.672 21.847 108.886 21.8703 109.095 21.9171V23.6554C108.824 23.5728 108.542 23.5348 108.26 23.5431C107.99 23.5321 107.72 23.5797 107.471 23.6826C107.221 23.7855 106.996 23.9412 106.812 24.1391C106.628 24.337 106.489 24.5724 106.405 24.8291C106.32 25.0857 106.292 25.3576 106.323 25.6261V30.9962H104.465L104.465 21.9425Z" fill="white"/>
  <path d="M117.663 28.3369C117.413 29.9805 115.812 31.1084 113.764 31.1084C111.131 31.1084 109.496 29.3437 109.496 26.5127C109.496 23.6729 111.139 21.8311 113.686 21.8311C116.191 21.8311 117.766 23.5518 117.766 26.2969V26.9336H111.372V27.0459C111.342 27.3791 111.384 27.7148 111.494 28.0306C111.604 28.3464 111.781 28.6352 112.011 28.8778C112.241 29.1203 112.521 29.3111 112.83 29.4374C113.14 29.5637 113.473 29.6226 113.807 29.6103C114.247 29.6515 114.687 29.5498 115.064 29.3203C115.441 29.0909 115.733 28.746 115.898 28.3369L117.663 28.3369ZM111.381 25.6348H115.907C115.924 25.3352 115.878 25.0354 115.774 24.7541C115.669 24.4729 115.507 24.2164 115.299 24.0006C115.09 23.7849 114.839 23.6145 114.562 23.5003C114.284 23.3861 113.986 23.3305 113.686 23.3369C113.384 23.3351 113.084 23.3933 112.804 23.508C112.524 23.6227 112.269 23.7918 112.055 24.0054C111.84 24.2191 111.67 24.473 111.555 24.7527C111.439 25.0323 111.38 25.3321 111.381 25.6348V25.6348Z" fill="white"/>
  <path d="M46.1047 9.23089C46.4943 9.20293 46.8853 9.26179 47.2494 9.40323C47.6135 9.54466 47.9417 9.76514 48.2103 10.0488C48.4789 10.3324 48.6812 10.6721 48.8026 11.0434C48.924 11.4146 48.9615 11.8082 48.9123 12.1957C48.9123 14.102 47.8821 15.1977 46.1047 15.1977H43.9495V9.23089H46.1047ZM44.8762 14.3539H46.0012C46.2796 14.3705 46.5582 14.3249 46.8168 14.2203C47.0753 14.1157 47.3073 13.9547 47.4958 13.7491C47.6843 13.5436 47.8245 13.2986 47.9064 13.032C47.9883 12.7653 48.0096 12.4838 47.969 12.2079C48.0067 11.9331 47.9831 11.6533 47.9 11.3886C47.8169 11.124 47.6763 10.881 47.4882 10.677C47.3001 10.4731 47.0693 10.3133 46.8122 10.2091C46.5551 10.1048 46.2782 10.0587 46.0012 10.0741H44.8762V14.3539Z" fill="white"/>
  <path d="M49.9593 12.9443C49.931 12.6484 49.9648 12.3498 50.0586 12.0677C50.1525 11.7857 50.3042 11.5263 50.5042 11.3063C50.7041 11.0864 50.9478 10.9106 51.2197 10.7903C51.4915 10.67 51.7855 10.6079 52.0828 10.6079C52.3801 10.6079 52.6741 10.67 52.9459 10.7903C53.2178 10.9106 53.4615 11.0864 53.6614 11.3063C53.8614 11.5263 54.0131 11.7857 54.107 12.0677C54.2008 12.3498 54.2346 12.6484 54.2063 12.9443C54.2352 13.2405 54.2017 13.5395 54.1081 13.822C54.0145 14.1045 53.8629 14.3644 53.6629 14.5848C53.4629 14.8052 53.219 14.9813 52.9469 15.1019C52.6748 15.2224 52.3804 15.2847 52.0828 15.2847C51.7852 15.2847 51.4908 15.2224 51.2187 15.1019C50.9466 14.9813 50.7027 14.8052 50.5027 14.5848C50.3027 14.3644 50.1511 14.1045 50.0575 13.822C49.9639 13.5395 49.9304 13.2405 49.9593 12.9443ZM53.2923 12.9443C53.2923 11.9682 52.8538 11.3974 52.0843 11.3974C51.3118 11.3974 50.8773 11.9682 50.8773 12.9443C50.8773 13.9282 51.3118 14.4946 52.0843 14.4946C52.8538 14.4946 53.2923 13.9243 53.2923 12.9443H53.2923Z" fill="white"/>
  <path d="M59.8518 15.1978H58.9299L57.9993 11.8813H57.929L57.0022 15.1978H56.0891L54.8479 10.6948H55.7493L56.5559 14.1308H56.6223L57.5481 10.6948H58.4006L59.3264 14.1308H59.3967L60.1995 10.6948H61.0881L59.8518 15.1978Z" fill="white"/>
  <path d="M62.1321 10.6949H62.9875V11.4102H63.054C63.1666 11.1533 63.3566 10.9379 63.5975 10.7941C63.8384 10.6503 64.1181 10.5852 64.3977 10.6079C64.6168 10.5915 64.8368 10.6245 65.0414 10.7046C65.246 10.7847 65.43 10.9098 65.5796 11.0707C65.7293 11.2315 65.8409 11.424 65.9061 11.6338C65.9713 11.8436 65.9885 12.0654 65.9563 12.2827V15.1977H65.0676V12.5059C65.0676 11.7823 64.7532 11.4224 64.096 11.4224C63.9472 11.4155 63.7987 11.4408 63.6606 11.4966C63.5226 11.5525 63.3982 11.6375 63.2961 11.7459C63.194 11.8543 63.1165 11.9834 63.069 12.1246C63.0214 12.2657 63.005 12.4154 63.0207 12.5635V15.1978H62.1321L62.1321 10.6949Z" fill="white"/>
  <path d="M67.3723 8.93701H68.261V15.1978H67.3723V8.93701Z" fill="white"/>
  <path d="M69.4963 12.9444C69.4681 12.6484 69.5019 12.3499 69.5958 12.0678C69.6897 11.7857 69.8414 11.5263 70.0414 11.3064C70.2414 11.0864 70.4851 10.9106 70.757 10.7903C71.0288 10.67 71.3228 10.6079 71.6201 10.6079C71.9174 10.6079 72.2114 10.67 72.4833 10.7903C72.7552 10.9106 72.9989 11.0864 73.1989 11.3064C73.3988 11.5263 73.5506 11.7857 73.6445 12.0678C73.7383 12.3499 73.7722 12.6484 73.7439 12.9444C73.7727 13.2406 73.7392 13.5396 73.6456 13.8221C73.552 14.1046 73.4003 14.3645 73.2003 14.5849C73.0003 14.8053 72.7564 14.9814 72.4842 15.1019C72.2121 15.2225 71.9178 15.2847 71.6201 15.2847C71.3225 15.2847 71.0282 15.2225 70.756 15.1019C70.4839 14.9814 70.24 14.8053 70.04 14.5849C69.84 14.3645 69.6883 14.1046 69.5946 13.8221C69.501 13.5396 69.4675 13.2406 69.4963 12.9444ZM72.8293 12.9444C72.8293 11.9683 72.3909 11.3975 71.6213 11.3975C70.8489 11.3975 70.4144 11.9683 70.4144 12.9444C70.4144 13.9283 70.8489 14.4947 71.6213 14.4947C72.3909 14.4947 72.8294 13.9244 72.8294 12.9444H72.8293Z" fill="white"/>
  <path d="M74.6794 13.9243C74.6794 13.1138 75.283 12.6465 76.3542 12.5801L77.574 12.5098V12.1211C77.574 11.6455 77.2595 11.377 76.6521 11.377C76.156 11.377 75.8123 11.5591 75.7136 11.8774H74.8533C74.9441 11.104 75.6716 10.6079 76.6931 10.6079C77.822 10.6079 78.4587 11.1699 78.4587 12.1211V15.1978H77.6033V14.5649H77.533C77.3902 14.7919 77.1898 14.977 76.9522 15.1012C76.7146 15.2254 76.4483 15.2843 76.1804 15.2719C75.9914 15.2916 75.8003 15.2714 75.6196 15.2127C75.4388 15.154 75.2724 15.0581 75.1309 14.9311C74.9895 14.8042 74.8763 14.649 74.7985 14.4756C74.7208 14.3021 74.6802 14.1144 74.6794 13.9243ZM77.574 13.5395V13.1631L76.4744 13.2334C75.8542 13.2749 75.573 13.4858 75.573 13.8828C75.573 14.2881 75.9245 14.5239 76.408 14.5239C76.5496 14.5382 76.6927 14.5239 76.8287 14.4819C76.9647 14.4398 77.0909 14.3707 77.1997 14.2789C77.3084 14.1871 77.3976 14.0743 77.462 13.9473C77.5263 13.8202 77.5644 13.6816 77.574 13.5395Z" fill="white"/>
  <path d="M79.6267 12.9444C79.6267 11.5215 80.3582 10.6201 81.4958 10.6201C81.7773 10.6072 82.0566 10.6746 82.3011 10.8145C82.5456 10.9544 82.7453 11.161 82.8767 11.4101H82.9431V8.93701H83.8318V15.1978H82.9802V14.4863H82.9099C82.7683 14.7338 82.5617 14.9378 82.3124 15.0763C82.0632 15.2148 81.7808 15.2825 81.4959 15.272C80.3503 15.272 79.6267 14.3706 79.6267 12.9444ZM80.5447 12.9444C80.5447 13.8994 80.9949 14.4741 81.7478 14.4741C82.4968 14.4741 82.9597 13.8911 82.9597 12.9483C82.9597 12.0098 82.492 11.4185 81.7478 11.4185C80.9998 11.4185 80.5447 11.9971 80.5447 12.9444H80.5447Z" fill="white"/>
  <path d="M87.5086 12.9443C87.4803 12.6484 87.5141 12.3498 87.608 12.0677C87.7018 11.7857 87.8536 11.5263 88.0535 11.3063C88.2534 11.0864 88.4972 10.9106 88.769 10.7903C89.0409 10.67 89.3348 10.6079 89.6321 10.6079C89.9294 10.6079 90.2234 10.67 90.4952 10.7903C90.7671 10.9106 91.0108 11.0864 91.2107 11.3063C91.4107 11.5263 91.5624 11.7857 91.6563 12.0677C91.7501 12.3498 91.784 12.6484 91.7557 12.9443C91.7845 13.2405 91.751 13.5395 91.6575 13.822C91.5639 14.1045 91.4122 14.3644 91.2122 14.5848C91.0122 14.8052 90.7683 14.9813 90.4962 15.1019C90.2241 15.2224 89.9297 15.2847 89.6321 15.2847C89.3345 15.2847 89.0402 15.2224 88.768 15.1019C88.4959 14.9813 88.252 14.8052 88.052 14.5848C87.852 14.3644 87.7004 14.1045 87.6068 13.822C87.5132 13.5395 87.4797 13.2405 87.5086 12.9443ZM90.8416 12.9443C90.8416 11.9682 90.4031 11.3974 89.6336 11.3974C88.8611 11.3974 88.4266 11.9682 88.4266 12.9443C88.4266 13.9282 88.8612 14.4946 89.6336 14.4946C90.4031 14.4946 90.8416 13.9243 90.8416 12.9443Z" fill="white"/>
  <path d="M92.948 10.6949H93.8035V11.4102H93.8699C93.9825 11.1533 94.1725 10.9379 94.4134 10.7941C94.6543 10.6503 94.934 10.5852 95.2136 10.6079C95.4327 10.5915 95.6527 10.6245 95.8573 10.7046C96.0619 10.7847 96.2459 10.9098 96.3956 11.0707C96.5452 11.2315 96.6568 11.424 96.722 11.6338C96.7872 11.8436 96.8044 12.0654 96.7722 12.2827V15.1977H95.8836V12.5059C95.8836 11.7823 95.5691 11.4224 94.9119 11.4224C94.7631 11.4155 94.6146 11.4408 94.4766 11.4966C94.3385 11.5525 94.2141 11.6375 94.112 11.7459C94.0099 11.8543 93.9324 11.9834 93.8849 12.1246C93.8374 12.2657 93.8209 12.4154 93.8367 12.5635V15.1978H92.948V10.6949Z" fill="white"/>
  <path d="M101.794 9.57373V10.7153H102.769V11.4639H101.794V13.7793C101.794 14.251 101.988 14.4575 102.43 14.4575C102.544 14.4572 102.657 14.4503 102.769 14.437V15.1772C102.61 15.2058 102.448 15.221 102.286 15.2226C101.298 15.2226 100.904 14.875 100.904 14.0068V11.4638H100.189V10.7153H100.904V9.57373H101.794Z" fill="white"/>
  <path d="M103.983 8.93701H104.864V11.4185H104.934C105.052 11.1591 105.248 10.9425 105.493 10.7982C105.739 10.6539 106.023 10.5888 106.307 10.6118C106.525 10.6 106.743 10.6364 106.945 10.7184C107.148 10.8004 107.329 10.9261 107.478 11.0864C107.626 11.2468 107.737 11.4378 107.802 11.646C107.868 11.8541 107.887 12.0742 107.858 12.2905V15.1978H106.969V12.5098C106.969 11.7905 106.634 11.4263 106.006 11.4263C105.853 11.4137 105.699 11.4347 105.556 11.4878C105.412 11.5408 105.281 11.6247 105.173 11.7334C105.065 11.8421 104.982 11.9732 104.93 12.1173C104.878 12.2614 104.858 12.4152 104.872 12.5679V15.1977H103.983L103.983 8.93701Z" fill="white"/>
  <path d="M113.04 13.982C112.919 14.3935 112.657 14.7495 112.301 14.9877C111.944 15.2258 111.515 15.331 111.089 15.2847C110.792 15.2926 110.497 15.2357 110.225 15.1182C109.952 15.0007 109.708 14.8253 109.51 14.6041C109.313 14.383 109.165 14.1214 109.078 13.8376C108.992 13.5538 108.968 13.2545 109.008 12.9605C108.969 12.6656 108.993 12.3657 109.08 12.081C109.166 11.7964 109.313 11.5336 109.51 11.3105C109.707 11.0874 109.949 10.9093 110.221 10.7881C110.493 10.6669 110.787 10.6054 111.085 10.608C112.338 10.608 113.093 11.464 113.093 12.878V13.1881H109.914V13.2379C109.9 13.4031 109.921 13.5695 109.975 13.7262C110.029 13.883 110.115 14.0267 110.228 14.1481C110.341 14.2696 110.478 14.3661 110.63 14.4315C110.783 14.4969 110.947 14.5297 111.113 14.5279C111.326 14.5534 111.541 14.5151 111.732 14.4179C111.922 14.3207 112.08 14.169 112.184 13.982L113.04 13.982ZM109.914 12.5308H112.188C112.199 12.3797 112.179 12.2279 112.128 12.0852C112.077 11.9425 111.997 11.812 111.892 11.7021C111.788 11.5923 111.662 11.5055 111.522 11.4473C111.382 11.3891 111.231 11.3609 111.08 11.3643C110.926 11.3624 110.773 11.3913 110.631 11.4492C110.489 11.5072 110.359 11.593 110.251 11.7017C110.142 11.8104 110.056 11.9398 109.998 12.0822C109.941 12.2246 109.912 12.3771 109.914 12.5308H109.914Z" fill="white"/>
</svg>