<svg xmlns="http://www.w3.org/2000/svg" width="51" height="50" viewBox="0 0 51 50" fill="none">
  <path d="M33.8332 4.10419H17.1665C8.83317 4.10419 4.6665 8.27085 4.6665 16.6042V27.0209C4.6665 37.4375 8.83317 39.5209 17.1665 39.5209H18.2082C18.7915 39.5209 19.5415 39.8959 19.8748 40.3542L22.9998 44.5209C24.3748 46.3542 26.6248 46.3542 27.9998 44.5209L31.1248 40.3542C31.5207 39.8334 32.1457 39.5209 32.7915 39.5209H33.8332C42.1665 39.5209 46.3332 35.3542 46.3332 27.0209V16.6042C46.3332 8.27085 42.1665 4.10419 33.8332 4.10419ZM18.2707 25.3542C18.8748 25.9584 18.8748 26.9584 18.2707 27.5625C17.9582 27.875 17.5623 28.0209 17.1665 28.0209C16.7707 28.0209 16.3748 27.875 16.0623 27.5625L11.8957 23.3959C11.2915 22.7917 11.2915 21.7917 11.8957 21.1875L16.0623 17.0209C16.6665 16.4167 17.6665 16.4167 18.2707 17.0209C18.8748 17.625 18.8748 18.625 18.2707 19.2292L15.2082 22.2917L18.2707 25.3542ZM29.0207 18.0417L24.854 27.7709C24.604 28.3542 24.0207 28.7084 23.4165 28.7084C23.2082 28.7084 22.9998 28.6667 22.7915 28.5834C21.9998 28.25 21.6248 27.3334 21.979 26.5209L26.1457 16.7917C26.479 16 27.3957 15.625 28.2082 15.9792C28.9998 16.3334 29.354 17.25 29.0207 18.0417ZM39.104 23.3959L34.9373 27.5625C34.6248 27.875 34.229 28.0209 33.8332 28.0209C33.4373 28.0209 33.0415 27.875 32.729 27.5625C32.1248 26.9584 32.1248 25.9584 32.729 25.3542L35.7915 22.2917L32.729 19.2292C32.1248 18.625 32.1248 17.625 32.729 17.0209C33.3332 16.4167 34.3332 16.4167 34.9373 17.0209L39.104 21.1875C39.7082 21.7917 39.7082 22.7917 39.104 23.3959Z" fill="white"/>
</svg>