<svg xmlns="http://www.w3.org/2000/svg" width="60" height="60" viewBox="0 0 60 60" fill="none">
<path d="M58.9904 40.2411C58.318 39.5682 57.5001 39.2314 56.539 39.2314H39.8077L34.9039 44.1351C33.5096 45.481 31.875 46.1543 30.0001 46.1543C28.1255 46.1543 26.4904 45.4819 25.0963 44.1351L20.2285 39.2314H3.4615C2.50014 39.2314 1.68289 39.5685 1.0096 40.2411C0.336451 40.914 0 41.7313 0 42.6933V54.2314C0 55.193 0.336451 56.0103 1.0096 56.6833C1.68276 57.3562 2.50002 57.6924 3.4615 57.6924H56.5391C57.5002 57.6924 58.3181 57.3562 58.9905 56.6833C59.6639 56.0103 60.0001 55.193 60.0001 54.2314V42.6933C60.0001 41.7313 59.6639 40.914 58.9904 40.2411ZM45.4695 52.3924C45.0122 52.8492 44.4711 53.0775 43.8461 53.0775C43.221 53.0775 42.6807 52.8492 42.2236 52.3924C41.7671 51.9356 41.5389 51.3949 41.5389 50.7703C41.5389 50.1454 41.7671 49.6038 42.2236 49.1478C42.6807 48.6906 43.221 48.4619 43.8461 48.4619C44.4711 48.4619 45.012 48.6906 45.4695 49.1478C45.9258 49.6037 46.1541 50.1453 46.1541 50.7703C46.1541 51.3948 45.9258 51.9356 45.4695 52.3924ZM54.6996 52.3924C54.2432 52.8492 53.7022 53.0775 53.077 53.0775C52.4521 53.0775 51.9114 52.8492 51.4545 52.3924C50.9982 51.9356 50.77 51.3949 50.77 50.7703C50.77 50.1454 50.9982 49.6038 51.4545 49.1478C51.9113 48.6906 52.452 48.4619 53.077 48.4619C53.702 48.4619 54.2431 48.6906 54.6996 49.1478C55.1564 49.6037 55.385 50.1453 55.385 50.7703C55.385 51.3948 55.1568 51.9356 54.6996 52.3924Z" fill="white"/>
<path d="M28.3774 40.8538C28.8104 41.3101 29.3512 41.5385 30 41.5385C30.6492 41.5385 31.1894 41.3101 31.6225 40.8538L47.7765 24.6997C48.5215 24.0026 48.6901 23.1611 48.2813 22.1755C47.8734 21.2383 47.164 20.7696 46.154 20.7691H36.923V4.61517C36.923 3.99026 36.6942 3.44934 36.2383 2.99265C35.7811 2.53584 35.2405 2.30737 34.6158 2.30737H25.3841C24.7595 2.30737 24.2185 2.53584 23.7616 2.99265C23.305 3.44934 23.0766 3.99013 23.0766 4.61517V20.7692H13.8458C12.8357 20.7692 12.1269 21.2384 11.7182 22.1756C11.3098 23.1609 11.4779 24.0028 12.2233 24.6998L28.3774 40.8538Z" fill="white"/>
</svg>