<svg width="7" height="12" viewBox="0 0 7 12" fill="none" xmlns="http://www.w3.org/2000/svg">
<g id="Group">
<g id="Group_2">
<path id="Vector" d="M5.97315 0.502533L4.54671 0.500244C2.94416 0.500244 1.90851 1.56279 1.90851 3.20736V4.45552H0.474294C0.35036 4.45552 0.25 4.556 0.25 4.67993V6.48837C0.25 6.61231 0.350474 6.71267 0.474294 6.71267H1.90851V11.2759C1.90851 11.3999 2.00887 11.5002 2.13281 11.5002H4.00406C4.12799 11.5002 4.22835 11.3998 4.22835 11.2759V6.71267H5.90529C6.02922 6.71267 6.12958 6.61231 6.12958 6.48837L6.13027 4.67993C6.13027 4.62042 6.10658 4.56343 6.06458 4.52132C6.02259 4.47921 5.96537 4.45552 5.90586 4.45552H4.22835V3.39744C4.22835 2.88888 4.34954 2.63071 5.01201 2.63071L5.97292 2.63037C6.09674 2.63037 6.1971 2.52989 6.1971 2.40607V0.726829C6.1971 0.603123 6.09685 0.502762 5.97315 0.502533Z" fill="white"/>
</g>
</g>
</svg>
