<svg xmlns="http://www.w3.org/2000/svg" width="136" height="41" viewBox="0 0 136 41" fill="none">
  <path d="M130.25 0.500244H5.25C2.48858 0.500244 0.25 2.73882 0.25 5.50024V35.5002C0.25 38.2617 2.48858 40.5002 5.25 40.5002H130.25C133.011 40.5002 135.25 38.2617 135.25 35.5002V5.50024C135.25 2.73882 133.011 0.500244 130.25 0.500244Z" fill="black"/>
  <path d="M130.25 1.30029C131.364 1.30157 132.431 1.74452 133.218 2.53194C134.006 3.31936 134.449 4.38695 134.45 5.50049V35.5005C134.449 36.614 134.006 37.6816 133.218 38.469C132.431 39.2564 131.364 39.6994 130.25 39.7007H5.25C4.13645 39.6994 3.06888 39.2565 2.2815 38.4691C1.49412 37.6816 1.05123 36.614 1.05 35.5005V5.50049C1.05121 4.38693 1.49409 3.31933 2.28148 2.53191C3.06886 1.74449 4.13644 1.30155 5.25 1.30029H130.25ZM130.25 0.500488H5.25C3.92511 0.504366 2.65559 1.0324 1.71875 1.96924C0.781908 2.90608 0.253878 4.1756 0.25 5.50049L0.25 35.5005C0.253878 36.8254 0.781908 38.0949 1.71875 39.0317C2.65559 39.9686 3.92511 40.4966 5.25 40.5005H130.25C131.575 40.4966 132.844 39.9686 133.781 39.0317C134.718 38.0949 135.246 36.8254 135.25 35.5005V5.50049C135.246 4.1756 134.718 2.90608 133.781 1.96924C132.844 1.0324 131.575 0.504366 130.25 0.500488Z" fill="#A6A6A6"/>
  <path d="M47.6683 10.7436C47.6865 11.1105 47.6298 11.4773 47.5016 11.8217C47.3735 12.166 47.1767 12.4807 46.9231 12.7465C46.6389 13.0412 46.2956 13.2727 45.9158 13.4257C45.536 13.5786 45.1282 13.6497 44.719 13.6342C44.3072 13.6379 43.8988 13.5592 43.5179 13.4028C43.1369 13.2464 42.7911 13.0155 42.5007 12.7235C42.2103 12.4315 41.9812 12.0845 41.8268 11.7027C41.6725 11.3209 41.596 10.9121 41.6019 10.5004C41.596 10.0886 41.6725 9.67984 41.8269 9.29805C41.9813 8.91627 42.2104 8.56919 42.5008 8.2772C42.7912 7.98521 43.137 7.75419 43.5179 7.59773C43.8988 7.44127 44.3072 7.36251 44.719 7.36608C45.1424 7.3648 45.5615 7.4504 45.9505 7.61758C46.3117 7.76402 46.6333 7.99373 46.889 8.28798L46.3616 8.81578C46.1606 8.57923 45.908 8.39202 45.6232 8.26859C45.3384 8.14516 45.029 8.0888 44.719 8.10388C44.4069 8.10227 44.0977 8.16366 43.8099 8.28437C43.5221 8.40508 43.2616 8.58263 43.0441 8.80639C42.8265 9.03015 42.6564 9.29552 42.5438 9.58659C42.4312 9.87767 42.3786 10.1885 42.389 10.5004C42.3815 10.9676 42.513 11.4265 42.7667 11.8188C43.0204 12.2112 43.3849 12.5194 43.814 12.7044C44.2431 12.8893 44.7174 12.9427 45.1769 12.8577C45.6364 12.7727 46.0602 12.5532 46.3948 12.227C46.7027 11.8952 46.8811 11.4639 46.8977 11.0116H44.719V10.2909H47.6263C47.6538 10.4402 47.6678 10.5917 47.6683 10.7436Z" fill="white" stroke="white" stroke-width="0.2" stroke-miterlimit="10"/>
  <path d="M52.2778 8.23754H49.5454V10.1398H52.0093V10.8606H49.5454V12.7629H52.2778V13.5002H48.7749V7.50024H52.2778V8.23754Z" fill="white" stroke="white" stroke-width="0.2" stroke-miterlimit="10"/>
  <path d="M55.5286 13.5002H54.7571V8.23754H53.0813V7.50024H57.2044V8.23754H55.5286V13.5002Z" fill="white" stroke="white" stroke-width="0.2" stroke-miterlimit="10"/>
  <path d="M60.188 13.5002V7.50024H60.9585V13.5002H60.188Z" fill="white" stroke="white" stroke-width="0.2" stroke-miterlimit="10"/>
  <path d="M64.3784 13.5002H63.6069V8.23754H61.9312V7.50024H66.0542V8.23754H64.3784V13.5002Z" fill="white" stroke="white" stroke-width="0.2" stroke-miterlimit="10"/>
  <path d="M73.8592 12.7249C73.2752 13.3071 72.4841 13.6341 71.6595 13.6341C70.8348 13.6341 70.0438 13.3071 69.4598 12.7249C69.1709 12.4322 68.9437 12.0845 68.7919 11.7023C68.6401 11.3202 68.5667 10.9114 68.576 10.5003C68.5667 10.0892 68.6401 9.68036 68.7919 9.29819C68.9437 8.91603 69.1709 8.56829 69.4598 8.27567C69.7484 7.98693 70.0912 7.75796 70.4685 7.60187C70.8457 7.44577 71.2501 7.36561 71.6583 7.36597C72.0666 7.36633 72.4708 7.44721 72.8478 7.60398C73.2248 7.76074 73.5671 7.99032 73.8553 8.27957C74.1444 8.57142 74.372 8.91838 74.5244 9.29985C74.6769 9.68132 74.7513 10.0895 74.743 10.5003C74.7521 10.9113 74.6785 11.3201 74.5267 11.7022C74.3749 12.0843 74.1479 12.4321 73.8592 12.7249ZM70.0291 12.2225C70.4616 12.6543 71.0478 12.8968 71.659 12.8968C72.2702 12.8968 72.8564 12.6543 73.2889 12.2225C73.5107 11.9954 73.6841 11.7257 73.7988 11.4297C73.9134 11.1337 73.9669 10.8175 73.9559 10.5003C73.9669 10.183 73.9134 9.86685 73.7988 9.57085C73.6841 9.27484 73.5107 9.00515 73.2889 8.77807C72.8564 8.34627 72.2702 8.10376 71.659 8.10376C71.0478 8.10376 70.4616 8.34627 70.0291 8.77807C69.8076 9.00533 69.6344 9.27507 69.5199 9.57105C69.4055 9.86703 69.3521 10.1831 69.3631 10.5003C69.3521 10.8174 69.4055 11.1335 69.5199 11.4295C69.6344 11.7255 69.8076 11.9952 70.0291 12.2225Z" fill="white" stroke="white" stroke-width="0.2" stroke-miterlimit="10"/>
  <path d="M75.8252 13.5002V7.50024H76.7637L79.6797 12.1677H79.7129L79.6797 11.0114V7.50024H80.4512V13.5002H79.6465L76.5957 8.60664H76.5625L76.5957 9.76294V13.5002H75.8252Z" fill="white" stroke="white" stroke-width="0.2" stroke-miterlimit="10"/>
  <path d="M68.3859 22.2519C67.5454 22.2551 66.7246 22.5073 66.0273 22.9766C65.33 23.4458 64.7874 24.1112 64.4679 24.8887C64.1485 25.6661 64.0666 26.5208 64.2325 27.3448C64.3984 28.1687 64.8048 28.9251 65.4003 29.5183C65.9957 30.1115 66.7536 30.5149 67.5782 30.6777C68.4028 30.8405 69.2571 30.7554 70.0334 30.433C70.8096 30.1106 71.4729 29.5654 71.9395 28.8663C72.4061 28.1672 72.6552 27.3456 72.6552 26.5051C72.6634 25.9429 72.5585 25.3848 72.3467 24.864C72.1349 24.3432 71.8204 23.8703 71.4221 23.4735C71.0238 23.0767 70.5497 22.764 70.0281 22.5542C69.5065 22.3443 68.948 22.2416 68.3859 22.2519ZM68.3859 29.0828C67.8682 29.1197 67.3515 28.9999 66.9029 28.739C66.4543 28.4781 66.0947 28.0882 65.8708 27.62C65.6469 27.1519 65.5691 26.6272 65.6476 26.1142C65.7261 25.6012 65.9572 25.1238 66.3109 24.744C66.6645 24.3642 67.1243 24.0997 67.6304 23.9849C68.1365 23.8701 68.6654 23.9104 69.1483 24.1004C69.6312 24.2904 70.0457 24.6214 70.3379 25.0503C70.63 25.4792 70.7863 25.9861 70.7863 26.5051C70.802 26.8329 70.7519 27.1606 70.6391 27.4688C70.5263 27.777 70.3529 28.0595 70.1292 28.2997C69.9055 28.5399 69.6361 28.7329 69.3367 28.8674C69.0373 29.0019 68.714 29.0751 68.3859 29.0828ZM59.0725 22.2519C58.232 22.2551 57.4112 22.5073 56.7139 22.9765C56.0166 23.4458 55.4739 24.1112 55.1545 24.8886C54.835 25.666 54.7531 26.5207 54.919 27.3447C55.0849 28.1687 55.4913 28.925 56.0867 29.5182C56.6822 30.1114 57.4401 30.5149 58.2647 30.6777C59.0893 30.8405 59.9436 30.7554 60.7198 30.433C61.4961 30.1106 62.1594 29.5654 62.626 28.8663C63.0926 28.1672 63.3417 27.3456 63.3417 26.5051C63.3499 25.9429 63.245 25.3848 63.0332 24.864C62.8214 24.3432 62.507 23.8703 62.1086 23.4735C61.7103 23.0767 61.2363 22.7641 60.7147 22.5542C60.1931 22.3444 59.6346 22.2416 59.0725 22.2519ZM59.0725 29.0828C58.5548 29.1197 58.0381 28.9999 57.5895 28.739C57.1409 28.4781 56.7813 28.0882 56.5574 27.62C56.3335 27.1519 56.2557 26.6272 56.3342 26.1142C56.4127 25.6012 56.6438 25.1238 56.9975 24.744C57.3511 24.3642 57.8109 24.0997 58.317 23.9849C58.8231 23.8701 59.352 23.9104 59.8349 24.1004C60.3178 24.2904 60.7323 24.6214 61.0245 25.0503C61.3166 25.4792 61.4729 25.9861 61.4729 26.5051C61.4886 26.8329 61.4386 27.1606 61.3257 27.4688C61.2129 27.777 61.0395 28.0595 60.8158 28.2997C60.5922 28.5399 60.3227 28.7329 60.0233 28.8674C59.7239 29.0019 59.4006 29.0751 59.0725 29.0828ZM47.9937 23.5569V25.3612H52.3114C52.2491 26.2076 51.9028 27.008 51.3286 27.6329C50.8959 28.0739 50.3756 28.4193 49.8011 28.6468C49.2267 28.8744 48.611 28.979 47.9937 28.9538C46.7316 28.9368 45.5271 28.4234 44.6407 27.525C43.7543 26.6265 43.2573 25.4151 43.2573 24.153C43.2573 22.8908 43.7543 21.6794 44.6407 20.7809C45.5271 19.8825 46.7316 19.3691 47.9937 19.3521C49.2059 19.3362 50.3754 19.7994 51.2481 20.6409L52.5208 19.3682C51.9253 18.7787 51.2182 18.314 50.4408 18.0014C49.6634 17.6888 48.8314 17.5345 47.9937 17.5476C47.1182 17.5349 46.2488 17.6963 45.4363 18.0226C44.6237 18.3488 43.8841 18.8333 43.2605 19.4479C42.6368 20.0625 42.1416 20.795 41.8036 21.6027C41.4656 22.4105 41.2915 23.2773 41.2915 24.153C41.2915 25.0286 41.4656 25.8954 41.8036 26.7032C42.1416 27.5109 42.6368 28.2434 43.2605 28.858C43.8841 29.4726 44.6237 29.9571 45.4363 30.2833C46.2488 30.6096 47.1182 30.771 47.9937 30.7582C48.8491 30.7937 49.7024 30.6469 50.4967 30.3275C51.2911 30.008 52.0085 29.5234 52.6013 28.9056C53.6537 27.7568 54.2146 26.2418 54.1641 24.6847C54.1682 24.3065 54.1358 23.9289 54.0673 23.5569H47.9937ZM93.302 24.9585C93.0464 24.1881 92.5598 23.5151 91.9084 23.0309C91.257 22.5466 90.4723 22.2747 89.661 22.2519C89.1145 22.2553 88.5744 22.3695 88.0733 22.5875C87.5722 22.8056 87.1205 23.123 86.7456 23.5205C86.3706 23.9181 86.0802 24.3875 85.8918 24.9005C85.7034 25.4135 85.621 25.9593 85.6496 26.5051C85.6373 27.0642 85.7378 27.6202 85.9451 28.1396C86.1525 28.6591 86.4624 29.1314 86.8564 29.5284C87.2504 29.9254 87.7203 30.2389 88.2382 30.4502C88.7561 30.6615 89.3112 30.7663 89.8705 30.7582C90.5711 30.7621 91.2618 30.5919 91.8804 30.2629C92.499 29.9339 93.0262 29.4565 93.4147 28.8734L91.9648 27.9067C91.7476 28.2675 91.4403 28.5656 91.0731 28.7717C90.706 28.9779 90.2915 29.0851 89.8705 29.0828C89.4372 29.0993 89.0089 28.9853 88.6412 28.7555C88.2734 28.5257 87.9833 28.1907 87.8083 27.7939L93.4954 25.4419L93.302 24.9585ZM87.5023 26.3762C87.4822 26.0667 87.5242 25.7562 87.6255 25.4631C87.7269 25.1699 87.8858 24.8999 88.0928 24.6689C88.2998 24.4379 88.5508 24.2505 88.8312 24.1176C89.1115 23.9848 89.4155 23.9092 89.7254 23.8953C90.0481 23.874 90.3698 23.9483 90.6506 24.1087C90.9314 24.2691 91.1587 24.5087 91.3043 24.7974L87.5023 26.3762ZM82.8785 30.5005H84.7473V17.9988H82.8785V30.5005ZM79.8175 23.2024H79.7531C79.4689 22.8938 79.1222 22.6493 78.736 22.4854C78.3498 22.3215 77.9331 22.2419 77.5137 22.2519C76.417 22.2986 75.3807 22.7671 74.6212 23.5596C73.8617 24.3521 73.4377 25.4074 73.4377 26.5051C73.4377 27.6028 73.8617 28.658 74.6212 29.4506C75.3807 30.2431 76.417 30.7116 77.5137 30.7582C77.9347 30.7695 78.3532 30.6888 78.7399 30.5219C79.1267 30.3549 79.4724 30.1057 79.7531 29.7917H79.8175V30.4039C79.8175 32.0311 78.9476 32.9009 77.5459 32.9009C77.0787 32.8898 76.6255 32.7398 76.2439 32.4701C75.8624 32.2004 75.5697 31.8232 75.4033 31.3865L73.7761 32.0632C74.0828 32.8099 74.6054 33.448 75.277 33.8958C75.9487 34.3435 76.7387 34.5805 77.5459 34.5764C79.737 34.5764 81.5897 33.2876 81.5897 30.146V22.5096H79.8175V23.2024ZM77.6749 29.0828C77.0289 29.028 76.4271 28.7327 75.9885 28.2553C75.5499 27.778 75.3065 27.1534 75.3065 26.5051C75.3065 25.8568 75.5499 25.2322 75.9885 24.7549C76.4271 24.2775 77.0289 23.9822 77.6749 23.9275C77.9962 23.9431 78.3111 24.0234 78.6008 24.1634C78.8905 24.3034 79.149 24.5002 79.361 24.7423C79.573 24.9843 79.7341 25.2666 79.8346 25.5722C79.9352 25.8778 79.9732 26.2005 79.9464 26.5212C79.9715 26.8398 79.9321 27.1602 79.8305 27.4633C79.729 27.7663 79.5673 28.0458 79.3553 28.2849C79.1432 28.5241 78.8851 28.718 78.5964 28.8551C78.3076 28.9921 77.9942 29.0696 77.6749 29.0828ZM102.056 17.9991H97.5847V30.5005H99.4504V25.764H102.056C102.584 25.793 103.112 25.714 103.608 25.532C104.104 25.3499 104.558 25.0686 104.942 24.7053C105.326 24.3419 105.631 23.9041 105.84 23.4186C106.049 22.9331 106.157 22.4101 106.157 21.8815C106.157 21.353 106.049 20.83 105.84 20.3445C105.631 19.859 105.326 19.4212 104.942 19.0578C104.558 18.6945 104.104 18.4132 103.608 18.2311C103.112 18.0491 102.584 17.9701 102.056 17.9991ZM102.104 24.0243H99.4504V19.739H102.104C102.389 19.733 102.673 19.7841 102.938 19.8891C103.203 19.9941 103.444 20.151 103.648 20.3506C103.852 20.5501 104.014 20.7883 104.124 21.0512C104.235 21.3141 104.292 21.5964 104.292 21.8816C104.292 22.1668 104.235 22.4491 104.124 22.712C104.014 22.9749 103.852 23.2131 103.648 23.4126C103.444 23.6122 103.203 23.7691 102.938 23.8741C102.673 23.9791 102.389 24.0302 102.104 24.0243ZM113.636 22.229C112.955 22.1892 112.277 22.3491 111.686 22.6891C111.094 23.0291 110.615 23.5343 110.306 24.1428L111.963 24.8344C112.127 24.5324 112.376 24.2848 112.679 24.122C112.982 23.9592 113.325 23.8882 113.668 23.9177C114.141 23.8714 114.614 24.0148 114.981 24.3163C115.349 24.6177 115.582 25.0528 115.63 25.5259V25.6546C115.031 25.3363 114.362 25.1706 113.684 25.1721C111.899 25.1721 110.081 26.1532 110.081 27.9867C110.099 28.3732 110.194 28.7521 110.36 29.1012C110.527 29.4503 110.762 29.7623 111.051 30.0189C111.341 30.2754 111.679 30.4711 112.045 30.5945C112.412 30.7178 112.8 30.7663 113.185 30.7369C113.655 30.7646 114.124 30.6658 114.542 30.4508C114.961 30.2359 115.314 29.9126 115.566 29.5147H115.63V30.4797H117.431V25.6868C117.431 23.4673 115.775 22.229 113.636 22.229ZM113.411 29.0803C112.799 29.0803 111.947 28.7748 111.947 28.0189C111.947 27.054 113.008 26.684 113.925 26.684C114.521 26.6681 115.11 26.8125 115.63 27.1021C115.562 27.6444 115.299 28.1435 114.891 28.5071C114.483 28.8708 113.957 29.0744 113.411 29.0803ZM123.993 22.5023L121.854 27.9223H121.79L119.57 22.5023H117.56L120.889 30.0775L118.991 34.2913H120.937L126.068 22.5023H123.993ZM107.186 30.5005H109.052V17.9991H107.186V30.5005Z" fill="white"/>
  <path d="M10.6852 8.03842C10.3573 8.43049 10.1917 8.93312 10.2224 9.44332V31.5594C10.1916 32.0696 10.3572 32.5723 10.6852 32.9643L10.7592 33.0364L23.1482 20.6475V20.3552L10.7592 7.96582L10.6852 8.03842Z" fill="url(#paint0_linear_354_170)"/>
  <path d="M27.2776 24.779L23.1482 20.6476V20.3553L27.2786 16.2249L27.3717 16.278L32.2645 19.0581C33.6621 19.8521 33.6621 21.1513 32.2645 21.9458L27.3717 24.7259L27.2776 24.779Z" fill="url(#paint1_linear_354_170)"/>
  <path d="M27.3718 24.7254L23.1483 20.5015L10.6853 32.9644C10.9701 33.2155 11.3337 33.3591 11.7133 33.3704C12.0928 33.3816 12.4643 33.2597 12.7634 33.0258L27.3718 24.7254Z" fill="url(#paint2_linear_354_170)"/>
  <path d="M27.3718 16.2773L12.7634 7.9769C12.4643 7.74299 12.0928 7.62109 11.7133 7.6323C11.3337 7.64352 10.9701 7.78714 10.6853 8.0383L23.1483 20.5013L27.3718 16.2773Z" fill="url(#paint3_linear_354_170)"/>
  <path opacity="0.2" d="M27.2787 24.6323L12.7634 32.8796C12.4758 33.0986 12.1248 33.218 11.7634 33.2199C11.402 33.2219 11.0497 33.1062 10.7598 32.8903L10.6853 32.9648L10.7593 33.0369L10.7598 33.0364C11.0497 33.2524 11.4019 33.3681 11.7634 33.3662C12.1249 33.3643 12.4759 33.2448 12.7634 33.0257L27.3718 24.7253L27.2787 24.6323Z" fill="black"/>
  <path opacity="0.12" d="M10.6854 32.8187C10.3575 32.4266 10.192 31.924 10.2226 31.4138V31.5599C10.1919 32.0701 10.3575 32.5727 10.6854 32.9648L10.7599 32.8903L10.6854 32.8187Z" fill="black"/>
  <path opacity="0.12" d="M32.2647 21.799L27.2788 24.6322L27.3719 24.7252L32.2647 21.9451C32.5525 21.8202 32.8016 21.6204 32.986 21.3666C33.1703 21.1127 33.2833 20.814 33.313 20.5017C33.2511 20.7846 33.1242 21.0491 32.9422 21.2743C32.7602 21.4995 32.5283 21.6791 32.2647 21.799Z" fill="black"/>
  <path opacity="0.25" d="M12.7633 8.12359L32.2645 19.2036C32.5282 19.3234 32.7602 19.5032 32.9422 19.7285C33.1242 19.9538 33.2511 20.2184 33.3128 20.5014C33.2833 20.1889 33.1704 19.8901 32.986 19.6361C32.8016 19.3822 32.5525 19.1823 32.2645 19.0575L12.7633 7.97749C11.3657 7.18339 10.2224 7.84299 10.2224 9.44379V9.58989C10.2224 7.98919 11.3657 7.32959 12.7633 8.12359Z" fill="white"/>
  <defs>
    <linearGradient id="paint0_linear_354_170" x1="22.0495" y1="9.21013" x2="5.26711" y2="25.9925" gradientUnits="userSpaceOnUse">
      <stop stop-color="#00A0FF"/>
      <stop offset="0.00657" stop-color="#00A1FF"/>
      <stop offset="0.2601" stop-color="#00BEFF"/>
      <stop offset="0.5122" stop-color="#00D2FF"/>
      <stop offset="0.7604" stop-color="#00DFFF"/>
      <stop offset="1" stop-color="#00E3FF"/>
    </linearGradient>
    <linearGradient id="paint1_linear_354_170" x1="34.0842" y1="20.5019" x2="9.88727" y2="20.5019" gradientUnits="userSpaceOnUse">
      <stop stop-color="#FFE000"/>
      <stop offset="0.4087" stop-color="#FFBD00"/>
      <stop offset="0.7754" stop-color="#FFA500"/>
      <stop offset="1" stop-color="#FF9C00"/>
    </linearGradient>
    <linearGradient id="paint2_linear_354_170" x1="25.0769" y1="22.7966" x2="2.31857" y2="45.5548" gradientUnits="userSpaceOnUse">
      <stop stop-color="#FF3A44"/>
      <stop offset="1" stop-color="#C31162"/>
    </linearGradient>
    <linearGradient id="paint3_linear_354_170" x1="7.54723" y1="0.676481" x2="17.7098" y2="10.839" gradientUnits="userSpaceOnUse">
      <stop stop-color="#32A071"/>
      <stop offset="0.0685" stop-color="#2DA771"/>
      <stop offset="0.4762" stop-color="#15CF74"/>
      <stop offset="0.8009" stop-color="#06E775"/>
      <stop offset="1" stop-color="#00F076"/>
    </linearGradient>
  </defs>
</svg>