<svg xmlns="http://www.w3.org/2000/svg" width="51" height="50" viewBox="0 0 51 50" fill="none">
  <path d="M38 4.16663H13C9.54167 4.16663 6.75 6.93746 6.75 10.3541V33.0833C6.75 36.5 9.54167 39.2708 13 39.2708H14.5833C16.25 39.2708 17.8333 39.9166 19 41.0833L22.5625 44.6041C24.1875 46.2083 26.8333 46.2083 28.4583 44.6041L32.0208 41.0833C33.1875 39.9166 34.7917 39.2708 36.4375 39.2708H38C41.4583 39.2708 44.25 36.5 44.25 33.0833V10.3541C44.25 6.93746 41.4583 4.16663 38 4.16663ZM35.25 21.875L32.8125 29.2916C32.5 30.5208 31.1875 31.5208 29.8542 31.5208H26C25.3333 31.5208 24.3958 31.2916 23.9792 30.875L20.9167 28.4791C20.8542 29.8125 20.25 30.375 18.7708 30.375H17.7708C16.2292 30.375 15.6042 29.7708 15.6042 28.3125V18.375C15.6042 16.9166 16.2292 16.3125 17.7708 16.3125H18.7917C20.3333 16.3125 20.9583 16.9166 20.9583 18.375V19.125L25 13.125C25.4167 12.4791 26.4792 12.0208 27.375 12.375C28.3542 12.7083 28.9792 13.7916 28.7708 14.75L28.2708 18C28.2083 18.2708 28.2708 18.5625 28.4583 18.75C28.625 18.9375 28.875 19.0625 29.1458 19.0625H33.2083C34 19.0625 34.6667 19.375 35.0625 19.9375C35.4375 20.4791 35.5 21.1666 35.25 21.875Z" fill="white"/>
</svg>