<svg xmlns="http://www.w3.org/2000/svg" width="51" height="50" viewBox="0 0 51 50" fill="none">
  <path d="M35.9167 4.16669H15.0834C9.33341 4.16669 4.66675 8.81252 4.66675 14.5417V27V29.0834C4.66675 34.8125 9.33341 39.4584 15.0834 39.4584H18.2084C18.7709 39.4584 19.5209 39.8334 19.8751 40.2917L23.0001 44.4375C24.3751 46.2709 26.6251 46.2709 28.0001 44.4375L31.1251 40.2917C31.5209 39.7709 32.1459 39.4584 32.7917 39.4584H35.9167C41.6667 39.4584 46.3334 34.8125 46.3334 29.0834V14.5417C46.3334 8.81252 41.6667 4.16669 35.9167 4.16669ZM27.5834 28.6459H15.0834C14.2292 28.6459 13.5209 27.9375 13.5209 27.0834C13.5209 26.2292 14.2292 25.5209 15.0834 25.5209H27.5834C28.4376 25.5209 29.1459 26.2292 29.1459 27.0834C29.1459 27.9375 28.4376 28.6459 27.5834 28.6459ZM35.9167 18.2292H15.0834C14.2292 18.2292 13.5209 17.5209 13.5209 16.6667C13.5209 15.8125 14.2292 15.1042 15.0834 15.1042H35.9167C36.7709 15.1042 37.4792 15.8125 37.4792 16.6667C37.4792 17.5209 36.7709 18.2292 35.9167 18.2292Z" fill="white"/>
</svg>