<svg xmlns="http://www.w3.org/2000/svg" width="51" height="50" viewBox="0 0 51 50" fill="none">
  <path d="M25.3752 4.60414L20.3543 16.2916H15.3335C14.5002 16.2916 13.6877 16.3541 12.896 16.5208L14.9793 11.5208L15.0627 11.3333L15.1877 11C15.2502 10.8541 15.2918 10.7291 15.3543 10.625C17.771 5.02081 20.4793 3.27081 25.3752 4.60414Z" fill="white"/>
  <path d="M39.5208 16.8542L39.4792 16.8333C38.2292 16.4792 36.9583 16.2917 35.6667 16.2917H22.625L27.3125 5.39583L27.375 5.25C27.6667 5.35417 27.9792 5.5 28.2917 5.60417L32.8958 7.54167C35.4583 8.60417 37.25 9.70833 38.3542 11.0417C38.5417 11.2917 38.7083 11.5208 38.875 11.7917C39.0625 12.0833 39.2083 12.375 39.2917 12.6875C39.375 12.875 39.4375 13.0417 39.4792 13.2292C39.7917 14.2917 39.8125 15.5 39.5208 16.8542Z" fill="white"/>
  <path d="M26.5835 36.7917H27.1043C27.7293 36.7917 28.2502 36.2292 28.2502 35.5417C28.2502 34.6667 28.0002 34.5417 27.4585 34.3334L26.5835 34.0209V36.7917Z" fill="white"/>
  <path d="M38.604 19.8333C37.6665 19.5625 36.6873 19.4166 35.6665 19.4166H15.3332C13.9165 19.4166 12.5832 19.6875 11.3332 20.2291C7.70817 21.7916 5.1665 25.3958 5.1665 29.5833V33.6458C5.1665 34.1458 5.20817 34.625 5.27067 35.125C5.729 41.75 9.27067 45.2916 15.8957 45.7291C16.3748 45.7916 16.854 45.8333 17.3748 45.8333H33.6248C41.3332 45.8333 45.3957 42.1666 45.7915 34.875C45.8123 34.4791 45.8332 34.0625 45.8332 33.6458V29.5833C45.8332 24.9791 42.7707 21.1041 38.604 19.8333ZM28.1665 32.2916C29.1248 32.625 30.4165 33.3333 30.4165 35.5416C30.4165 37.4375 28.9373 38.9583 27.104 38.9583H26.5832V39.4166C26.5832 40.0208 26.104 40.5 25.4998 40.5C24.8957 40.5 24.4165 40.0208 24.4165 39.4166V38.9583H24.229C22.229 38.9583 20.5832 37.2708 20.5832 35.1875C20.5832 34.5833 21.0623 34.1041 21.6665 34.1041C22.2707 34.1041 22.7498 34.5833 22.7498 35.1875C22.7498 36.0625 23.4165 36.7916 24.229 36.7916H24.4165V33.2708L22.8332 32.7083C21.8748 32.375 20.5832 31.6666 20.5832 29.4583C20.5832 27.5625 22.0623 26.0416 23.8957 26.0416H24.4165V25.5833C24.4165 24.9791 24.8957 24.5 25.4998 24.5C26.104 24.5 26.5832 24.9791 26.5832 25.5833V26.0416H26.7707C28.7707 26.0416 30.4165 27.7291 30.4165 29.8125C30.4165 30.4166 29.9373 30.8958 29.3332 30.8958C28.729 30.8958 28.2498 30.4166 28.2498 29.8125C28.2498 28.9375 27.5832 28.2083 26.7707 28.2083H26.5832V31.7291L28.1665 32.2916Z" fill="white"/>
  <path d="M22.75 29.4584C22.75 30.3334 23 30.4584 23.5417 30.6667L24.4167 30.9792V28.2084H23.8958C23.25 28.2084 22.75 28.7709 22.75 29.4584Z" fill="white"/>
</svg>