<svg xmlns="http://www.w3.org/2000/svg" width="176" height="146" viewBox="0 0 176 146" fill="none">
  <path d="M108.526 7.55634C95.1809 6.97492 81.2846 9.27001 70.2042 16.7367C59.1239 24.2035 51.4105 37.4844 53.094 50.7348C54.0429 58.1403 57.6853 64.9338 59.6136 72.1557C61.542 79.3776 61.2971 88.099 55.7264 93.1176C53.1552 95.4433 49.7883 96.6674 46.6662 98.1974C40.2384 101.411 34.3309 106.919 33.3514 114.018C32.4332 120.567 35.9532 127.146 41.0342 131.43C46.0846 135.684 52.5124 138.01 58.879 139.815C78.8665 145.476 100.446 146.945 120.28 140.856C140.114 134.766 157.959 120.414 165.336 101.013C171.029 86.0487 170.295 69.2792 166.346 53.7643C164.663 47.1238 162.397 40.6058 159 34.6691C149.358 17.869 130.258 7.21973 110.883 7.21973L108.526 7.55634Z" fill="#EA4335"/>
  <path d="M115.199 76.9906C112.995 73.5327 110.944 68.6059 107.424 66.219C104.7 64.3829 101.15 64.5359 98.0582 65.1785C90.2224 66.8616 84.0089 73.0737 80.4276 80.0202C78.4687 83.8147 77.1219 87.9459 76.1118 92.1077C75.1936 95.9023 74.0304 100.064 74.2753 104.042C74.4283 106.735 75.4384 109.765 78.0401 111.05C80.2134 112.121 82.6927 111.356 83.3967 109C84.1313 106.521 80.244 105.45 79.54 107.929C79.5706 107.776 78.285 104.042 78.2544 103.553C78.1932 102.359 78.3769 101.104 78.5605 99.9416C78.9278 97.6771 79.4482 95.4126 79.9685 93.2093C81.2541 87.9153 83.0294 82.6519 86.2127 78.1841C89.1817 74.0223 93.4669 70.4726 98.5173 69.2485C101.731 68.4835 104.762 68.5447 106.874 71.4212C108.649 73.8387 110.118 76.5316 111.71 79.0409C113.118 81.183 116.576 79.1633 115.199 76.9906Z" fill="white"/>
  <path d="M64.9086 74.267C68 78.3064 75.4686 82.3763 79.2946 76.9599C80.7945 74.8484 77.3051 72.8287 75.8358 74.9402C74.3666 77.0211 70.5712 74.4812 68.9489 72.8593C69.4692 72.4921 69.8366 71.9107 69.806 71.2375C69.7447 70.1358 68.9183 69.2178 67.7858 69.2178C67.6633 69.2178 67.5409 69.2178 67.3879 69.2178C66.3472 69.2178 65.3371 70.1358 65.3677 71.2375C65.3677 71.3905 65.3983 71.5741 65.4595 71.7271C64.6025 72.2473 64.1434 73.2571 64.9086 74.267Z" fill="white"/>
  <path d="M105.22 84.7022C103.812 85.4061 102.404 86.1099 100.966 86.8137C98.3027 85.4979 96.1601 83.2946 95.0888 80.3874C94.2012 78.0005 90.3139 79.041 91.2321 81.4585C93.2523 86.9055 97.9354 91.0061 103.751 91.8935C105.679 92.1996 106.751 90.0269 106.047 88.8028C106.445 88.5886 106.873 88.405 107.271 88.1908C108.251 87.7012 108.526 86.3241 108.006 85.4367C107.363 84.4268 106.169 84.2126 105.22 84.7022Z" fill="white"/>
  <path d="M68.7953 117.935C65.3671 112.825 53.3379 94.3111 45.5633 103.644C43.0228 106.705 43.3901 113.039 45.7163 116.13C47.8283 118.945 51.4401 119.955 55.052 120.536C51.1035 123.352 47.5835 127.483 51.0728 130.757C57.6231 136.908 63.9285 125.31 68.4892 122.832C69.8053 122.128 69.6829 120.659 68.9177 119.802C69.2238 119.312 69.2544 118.639 68.7953 117.935ZM59.1229 126.228C58.2965 126.963 57.2558 127.85 56.1233 127.942C53.797 128.126 54.501 126.412 55.6947 125.096C57.3782 123.26 59.4902 122.066 61.8471 121.363C63.5918 120.842 63.8979 117.843 61.8471 117.507C59.0005 117.048 56.0314 116.742 53.2461 116.007C48.8996 114.906 45.9612 110.56 49.3588 106.827C49.9403 105.389 50.8586 104.991 52.1441 105.572C53.2767 106.031 54.2868 106.674 55.1438 107.561C56.2457 108.571 57.2252 109.734 58.2047 110.836C60.7758 113.712 63.1327 116.742 65.3059 119.955C65.3365 119.986 65.3365 120.016 65.3671 120.047C62.9184 121.76 61.388 124.178 59.1229 126.228Z" fill="white"/>
  <path d="M170.661 78.0309C170.111 72.6145 176.783 69.7686 175.834 64.2297C175.651 63.1587 175.161 62.2713 174.641 61.3532C173.477 59.3641 172.896 58.0177 173.018 55.6308C173.171 52.7543 173.814 50.3367 173.202 47.4296C172.069 42.1968 168.641 38.3716 164.05 35.8623C160.989 34.1793 158.479 32.894 157.561 29.283C156.857 26.5289 156.918 23.5912 155.816 20.9289C154.01 16.5835 150.184 15.1146 145.777 14.8086C142.746 14.5944 139.502 14.9616 136.87 13.1255C134.329 11.3507 133.074 8.10693 131.176 5.75063C122.483 -5.05164 108.924 2.17027 97.7211 4.92439C97.1701 4.49597 96.3743 4.34297 95.5784 4.80199C94.9357 5.1692 94.2623 5.47522 93.5583 5.72003C93.4971 5.72003 93.4665 5.72003 93.4052 5.75063C93.0379 5.78123 92.7012 5.90363 92.4564 6.08724C87.0386 7.64791 80.9169 6.54626 75.4992 8.53535C75.1319 8.35174 74.6421 8.32114 74.1218 8.53535C60.4397 13.9518 50.1552 26.4983 48.135 41.2176C47.1556 48.3783 48.0432 56.5182 53.2773 61.9346C58.695 67.5347 67.3879 68.5751 74.7952 68.3915C82.9065 68.1773 91.079 65.974 97.1701 60.4352C97.3537 60.2822 97.5374 60.0986 97.7211 59.915C102.251 56.916 107.332 53.4887 112.964 53.4275C119.331 53.3663 124.626 58.3543 127.932 63.3729C134.176 72.7981 133.839 83.3556 130.105 93.6376C128.697 97.4628 127.228 101.166 125.942 104.868C127.014 99.3907 122.698 91.9851 116.576 93.1174C114.035 93.5764 115.107 97.4628 117.647 96.9732C120.922 96.3611 122.575 102.298 121.932 104.501C121.106 107.225 117.953 108.724 115.75 106.521C113.913 104.685 111.097 107.531 112.903 109.367C116.882 113.375 123.004 111.601 125.269 106.949C123.371 112.733 122.024 118.608 122.116 125.096C122.3 134.582 126.31 140.488 135.308 143.671C142.93 146.364 152.847 147.374 158.785 140.702C160.775 138.469 162.06 135.745 162.734 132.838C163.346 133.848 164.785 134.399 165.856 133.297C169.498 129.655 171.029 124.514 169.988 119.526C170.233 118.884 170.202 118.119 169.621 117.445C167.356 114.753 169.59 109.642 170.325 106.735C171.274 103.032 172.345 99.3295 173.141 95.5961C173.692 92.9644 174.028 90.2715 173.569 87.5785C172.957 84.2124 170.998 81.3053 170.661 78.0309ZM167.111 80.632C168.182 84.4878 170.049 87.7622 169.621 91.9239C169.223 95.8103 167.937 99.6967 166.958 103.461C165.733 108.234 163.346 113.926 165.642 118.516C165.642 118.731 165.672 118.975 165.733 119.22C166.958 123.198 166.009 127.268 163.101 130.237C163.53 126.197 162.887 121.974 161.326 118.363C158.418 111.57 150.766 105.144 142.93 107.806C135.186 110.407 132.799 121.056 135.217 128.033C137.757 135.378 149.297 140.733 153.612 131.706C156.949 124.667 148.103 117.537 142.593 123.627C140.879 125.555 143.695 128.401 145.44 126.473C147.491 124.208 151.041 126.259 150.307 129.196C149.633 132.012 146.45 132.93 143.971 132.103C139.686 130.726 138.155 125.616 138.369 121.546C138.584 117.384 140.512 112.763 144.797 111.601C149.266 110.377 153.704 113.498 156.122 117.078C159.826 122.556 160.438 130.573 156.949 136.326C152.694 143.334 143.542 142.141 136.931 139.907C133.533 138.775 129.83 137.061 127.901 133.848C125.728 130.237 125.942 125.279 126.187 121.209C126.646 113.375 129.34 106.276 132.248 99.0846C137.237 86.5993 139.318 73.808 131.727 61.8122C128.085 56.0898 122.361 50.5204 115.413 49.5105C111.128 48.8985 107.026 50.0919 103.2 51.9586C104.792 48.1947 105.19 44.0941 103.139 40.5749C95.9151 28.212 74.3054 34.7913 74.9482 48.9597C75.2237 55.0187 82.9065 63.6789 88.6303 57.2526C92.8849 52.4788 86.0591 45.869 81.8352 50.4898C80.0905 52.387 82.9371 55.233 84.6818 53.3357C80.3966 58.0483 78.5907 49.1433 79.1416 46.3586C79.7844 43.2372 81.927 40.6973 84.8042 39.3815C91.0178 36.5356 101.823 39.1367 100.292 47.7356C99.68 51.1018 98.2108 53.8865 96.16 56.1204C95.9764 56.2428 95.7927 56.3652 95.609 56.4876C95.2111 56.763 94.9663 57.069 94.8132 57.4363C88.1712 63.3423 77.152 64.9336 68.8571 64.1379C62.0007 63.4647 55.4199 60.7106 53.0018 53.7641C51.1041 48.3477 51.6244 42.1356 53.2161 36.6886C56.3381 25.9169 64.3882 16.8283 74.7646 12.5747C75.1319 12.7583 75.6216 12.7889 76.142 12.5747C82.0188 10.1878 88.5385 11.4425 94.4459 9.60639C105.679 7.83152 121.137 -2.14451 129.37 10.0654C132.095 14.1354 134.513 17.6239 139.655 18.4196C142.134 18.8174 144.675 18.6032 147.154 18.9704C151.286 19.5824 152.388 22.3977 152.97 26.0699C153.765 30.8743 154.531 34.8525 158.908 37.6372C161.418 39.2591 164.203 40.1465 166.284 42.411C168.488 44.8285 169.682 48.1028 169.59 51.3772C169.529 54.3455 168.274 57.1914 169.284 60.1598C169.651 61.2002 170.325 62.0571 170.906 62.9751C172.131 64.9336 171.916 66.2188 170.784 68.1467C168.182 72.6145 165.58 75.032 167.111 80.632Z" fill="white"/>
  <path d="M24.6897 80.0814C19.7311 77.6027 17.9251 83.1415 17.4354 88.0683C16.5478 87.1197 15.4765 86.4465 13.9461 86.5077C11.4361 86.5689 10.0893 88.8334 10.2118 91.1285C10.5179 97.3711 17.2212 102.329 22.6389 103.981C24.1693 104.44 25.1794 103.124 25.1182 101.87C25.3325 101.564 25.4549 101.196 25.4549 100.737C25.3937 95.3208 31.9133 83.6923 24.6897 80.0814ZM15.905 94.617C15.7213 94.3722 13.7624 91.8935 15.5989 92.1077C15.7213 92.1077 17.5885 94.7394 17.9864 95.076C19.1495 96.0553 21.6594 95.5351 21.4145 93.6684C21.1084 91.0979 21.0472 88.5273 21.7206 86.018C22.0267 84.8552 22.5164 83.2333 23.7102 84.9164C24.4448 85.9568 23.8938 88.4049 23.7102 89.4454C23.0674 92.8115 21.8125 95.8717 21.5064 99.2378C19.2719 98.1974 17.3436 96.6673 15.905 94.617Z" fill="white"/>
  <path d="M12.1394 78.6734C14.435 74.7565 17.1286 70.8701 19.0569 66.7695C20.2813 64.1378 20.7098 60.8941 18.7814 58.4766C17.1898 56.4875 14.4656 56.0591 12.17 56.9465C10.0886 57.7727 8.803 59.3946 7.91535 61.2919C4.88509 59.5782 0.997815 60.0984 0.171381 64.5662C-0.930531 70.5641 3.44648 76.6232 8.55812 79.1937C8.89482 79.3773 9.23153 79.4385 9.56822 79.4079C10.4253 79.8363 11.5272 79.7139 12.1394 78.6734ZM5.40545 70.9313C4.88511 69.9827 4.48718 68.9116 4.24231 67.8406C3.8444 65.9127 5.31363 63.0974 7.08893 65.6985C8.0378 67.1061 10.2416 66.9531 10.762 65.2089C10.9762 64.2908 11.3129 63.3728 11.7414 62.5159C12.7515 60.282 14.2513 60.2514 16.1491 62.3935C16.5164 64.046 14.8635 66.1269 14.0677 67.4734C12.5679 70.0133 11.068 72.5532 9.56822 75.0931C7.82353 74.1138 6.41554 72.7674 5.40545 70.9313Z" fill="white"/>
  <path d="M25.1189 86.018C24.9965 85.8037 24.874 85.5589 24.7516 85.3447C23.864 83.7229 21.6601 84.3043 21.0786 85.8343C20.4664 87.4562 19.9461 89.0781 19.5175 90.7612C20.8337 90.9448 22.1499 91.1284 23.4661 91.2814C23.4661 89.7207 23.4967 88.1906 23.4967 86.63C23.5273 84.3655 20.1603 83.9065 19.5481 86.1098C18.8441 88.6191 18.3544 91.1284 18.0789 93.7295C19.4257 93.7295 20.7419 93.7295 22.0887 93.7295C22.2417 91.8628 22.2417 89.8431 22.609 88.007C22.9763 86.2016 24.0476 84.9775 25.1189 83.5392C23.864 83.2026 22.6396 82.866 21.3847 82.5294C20.8643 87.0278 20.1909 91.4956 19.3951 95.9634C20.0379 95.4738 20.6807 94.9841 21.3234 94.4945C20.8643 94.4945 18.0483 91.006 17.528 90.5163C16.3954 89.3841 13.8856 90.1185 14.0998 91.924C14.6202 96.1776 16.824 99.6355 20.8031 101.41C23.1293 102.451 25.1801 98.9929 22.8233 97.9525C20.2522 96.7896 18.4462 94.8005 18.1095 91.924C16.977 92.383 15.8139 92.8726 14.6813 93.3317C16.4567 95.1065 18.5993 98.4115 21.3234 98.5033C22.1193 98.5339 23.0987 97.8607 23.2518 97.0344C24.1088 92.23 24.8128 87.395 25.3944 82.5294C25.6392 80.3261 22.7008 80.1425 21.6601 81.5196C20.497 83.0802 19.1808 84.4879 18.7523 86.4158C18.2626 88.7415 18.2932 91.3426 18.0789 93.6989C17.8341 96.3 21.7826 96.2082 22.0887 93.6989C22.3641 91.465 22.8233 89.3229 23.4355 87.1502C22.1193 86.9666 20.8031 86.783 19.4869 86.63C19.4869 88.1906 19.4563 89.7207 19.4563 91.2814C19.4257 93.5153 22.8539 94.0355 23.4048 91.8016C23.8333 90.1185 24.3231 88.4967 24.9659 86.8748C23.7415 87.0278 22.5172 87.1808 21.2928 87.3644C21.4153 87.5786 21.5377 87.8234 21.6601 88.0376C22.9151 90.3327 26.3739 88.3131 25.1189 86.018Z" fill="white"/>
  <path d="M13.7018 62.0876C11.9265 62.0876 10.5797 63.0669 10.1818 64.8417C9.78387 66.6166 12.202 68.4833 13.5487 66.8002C14.6506 65.4232 15.4465 64.0461 16.028 62.363C16.7932 60.1291 13.5487 58.9663 12.355 60.8024C11.3449 62.3936 10.9164 63.9237 10.9776 65.821C11.0388 67.5347 13.1202 68.4833 14.4058 67.2287C16.1505 65.5456 16.9769 63.4953 17.0075 61.0778C17.0075 59.4559 15.324 58.6909 13.9773 59.3335C11.4061 60.5882 9.99815 65.056 12.1101 67.2593C12.5693 67.7489 13.4263 68.0243 14.0691 67.7795C16.1505 67.0144 17.0993 65.2396 17.0381 63.0669C17.0075 61.9346 16.1505 61.1084 15.018 61.0472C12.202 60.8942 10.6103 63.7707 9.44717 65.9434C7.97795 68.6669 7.18214 71.574 6.78423 74.6342C6.47814 76.8375 9.50838 77.0211 10.5185 75.644C12.1713 73.3795 14.0997 67.8101 11.7428 65.515C11.2531 65.0254 10.4572 64.7805 9.78385 64.9948C7.33516 65.8516 6.78422 68.8811 6.81483 71.1762C6.84544 73.3489 10.3961 74.0221 10.7634 71.6964C11.2225 68.7587 10.8858 66.1576 9.53901 63.4953C8.89623 62.21 6.723 62.1794 6.08022 63.4953C4.67222 66.433 4.30492 69.3707 5.13135 72.5533C5.59048 74.3588 8.71256 74.573 8.98804 72.5533C9.50838 69.0953 9.38594 65.821 8.55951 62.3936C8.1616 60.8024 5.65169 60.3434 4.88647 61.904C3.72334 64.3827 3.20302 66.8614 3.53972 69.585C3.84581 72.1555 7.21275 72.1555 7.54945 69.585C7.79431 67.6571 7.70247 65.8516 7.30456 63.9237C6.96787 62.2712 4.36613 61.904 3.63152 63.4341C2.37657 66.0352 2.0705 70.5948 4.64162 72.5839C5.92719 73.5631 7.45763 73.5937 8.89623 72.9817C10.8552 72.1555 11.651 70.1664 13.3651 69.0647C12.355 68.4833 11.3449 67.9019 10.3348 67.3205C10.2736 68.4527 10.1818 69.5849 10.1206 70.7172C10.0288 72.2167 11.8959 73.2265 13.1508 72.4615C14.9261 71.3292 15.7526 69.8604 15.9668 67.7795C16.2423 65.209 12.202 65.2396 11.9571 67.7795C11.6816 68.1773 11.4061 68.6057 11.1306 69.0035C12.1407 69.585 13.1508 70.1664 14.1609 70.7478C14.2221 69.6156 14.3139 68.4833 14.3752 67.3511C14.467 65.8516 12.5999 64.8111 11.3449 65.6068C10.1512 66.3718 9.47779 67.4123 8.46771 68.3609C8.28405 68.6669 7.97796 68.8811 7.58005 68.9423C6.93726 69.4625 6.66179 69.2789 6.78423 68.3609C6.50875 67.6571 6.81484 66.0658 7.09032 65.515C5.86597 65.362 4.64162 65.209 3.41728 65.0254C3.72336 66.6166 3.72334 68.0243 3.50908 69.6156C4.85586 69.6156 6.17206 69.6156 7.51884 69.6156C7.27398 67.6265 7.45762 65.7904 8.31466 63.9543C7.09032 63.8013 5.86597 63.6483 4.64162 63.4647C5.31501 66.127 5.46806 68.7587 5.07015 71.4822C6.35572 71.4822 7.64127 71.4822 8.92684 71.4822C8.40649 69.4013 8.55951 67.4735 9.47777 65.515C8.31464 65.515 7.18214 65.515 6.01901 65.515C6.84545 67.1368 7.12091 68.8505 6.84543 70.6254C8.1616 70.809 9.47778 70.9926 10.794 71.1456C10.794 71.0538 10.947 68.7893 10.8246 68.8199C10.1818 68.6363 9.50838 68.4833 8.8656 68.2997C8.98803 68.4221 9.11049 68.5139 9.23292 68.6363C9.04927 68.1773 8.835 67.6877 8.65135 67.2287C8.86561 69.4013 8.34525 71.7882 7.02908 73.5631C8.28403 73.8997 9.5084 74.2364 10.7634 74.573C11.0082 72.7675 11.4979 70.962 12.2325 69.2789C12.5692 68.5445 14.0691 64.9336 14.9873 64.9642C14.3139 64.2909 13.6406 63.6177 12.9672 62.9445C12.9672 63.2199 12.9366 63.4953 12.9366 63.7707C13.5793 63.9543 14.2527 64.1073 14.8955 64.2909C14.8037 64.1685 14.6813 64.0767 14.5894 63.9543C14.7731 64.4133 14.9874 64.9029 15.171 65.362C15.0486 64.4745 14.9873 63.1281 15.9668 62.6385C14.9567 62.057 13.9466 61.4756 12.9366 60.8942C12.9366 62.3018 12.508 63.2505 11.5286 64.2297C12.6611 64.6887 13.8242 65.1784 14.9567 65.6374C14.9261 64.5051 15.171 63.6177 15.7832 62.6385C14.5588 62.1182 13.3345 61.598 12.1101 61.0778C11.7734 62.0876 11.3449 62.9139 10.6715 63.7401C11.804 64.3827 12.9059 65.056 14.0385 65.6986C13.916 65.7598 13.7936 65.821 13.6712 65.9128C16.3035 66.0658 16.3035 62.057 13.7018 62.0876Z" fill="white"/>
</svg>