<svg xmlns="http://www.w3.org/2000/svg" width="143" height="157" viewBox="0 0 143 157" fill="none">
  <path d="M91.7769 10.7496C80.7884 7.81186 68.8816 9.80095 58.6277 14.7278C48.3738 19.6546 39.681 27.3355 32.1512 35.8427C17.6121 52.3368 7.08275 72.2888 1.72624 93.5874C-0.232715 101.421 -1.36524 110.326 3.07302 117.059C5.98084 121.435 10.7558 124.127 15.3471 126.667C19.3568 128.871 23.3666 131.074 27.3763 133.308C44.7008 142.855 62.515 152.587 82.074 155.524C101.633 158.493 123.671 153.321 135.792 137.684C138.149 134.654 140.077 131.258 141.179 127.555C142.22 124.036 142.434 120.364 142.495 116.722C142.802 99.4628 139.71 82.1425 133.435 66.0768C132.486 63.6899 131.476 61.2724 129.762 59.3751C126.395 55.6417 120.855 54.2341 117.947 50.1335C116.08 47.5018 115.621 44.1356 114.886 40.9837C112.346 29.8754 105.49 20.1442 96.4906 13.1671L91.7769 10.7496Z" fill="#FF8616"/>
  <path d="M104.632 76.4815C102.092 76.1143 101.02 79.97 103.561 80.3373C111.336 81.5001 118.957 78.9296 124.191 72.9929C125.905 71.065 123.059 68.2191 121.345 70.147C117.151 74.982 111.06 77.4301 104.632 76.4815Z" fill="white"/>
  <path d="M56.9149 76.4815C62.6081 73.2683 68.5768 70.0552 75.2801 71.6464C81.3712 73.0847 86.238 77.4301 89.8192 82.3875C93.0637 86.8859 95.543 91.9657 97.9611 96.9537C99.1548 99.4324 108.215 116.294 103.838 117.304C101.328 117.885 102.399 121.741 104.909 121.159C112.592 119.415 108.337 110.388 106.409 105.859C102.889 97.5658 99.1854 88.9668 94.0738 81.4695C90.0334 75.5022 84.6157 70.2694 77.5757 68.0967C69.3726 65.5568 61.9653 68.9841 54.8947 72.9929C52.6603 74.3088 54.6804 77.7667 56.9149 76.4815Z" fill="white"/>
  <path d="M76.9323 85.0805C78.7689 83.2444 75.9223 80.4291 74.0857 82.2345C68.7904 87.5286 61.8117 89.9461 54.3432 89.1504C51.772 88.875 51.8026 92.9144 54.3432 93.1592C62.7911 94.0466 70.9636 91.0783 76.9323 85.0805Z" fill="white"/>
  <path d="M127.437 115.192C116.693 130.738 96.6754 138.48 78.2796 134.257C77.9123 134.165 77.5756 134.196 77.2695 134.257C74.882 133.339 72.5558 132.298 70.2907 131.227C67.9645 130.126 65.9443 133.584 68.2706 134.685C80.9425 140.714 95.3286 145.12 109.286 141.05C120.826 137.684 129.916 128.381 131.171 116.202C131.386 114.06 128.447 113.723 127.437 115.192ZM105.552 137.837C102.736 138.449 99.9199 138.663 97.1039 138.633C107.266 136.888 116.816 132.115 124.315 124.923C120.489 131.625 113.296 136.185 105.552 137.837Z" fill="white"/>
  <path d="M39.3142 115.713C32.8863 119.599 27.8971 112.346 26.9789 106.685C26.4891 103.564 26.3361 99.8611 29.3357 97.9332C30.254 97.3517 31.3865 97.0763 32.4578 96.9845C33.9576 96.8621 39.4672 97.4435 37.1103 100.963C35.6717 103.105 39.1611 105.124 40.5691 102.982C43.6912 98.3004 39.5284 93.7102 34.7535 93.037C29.9785 92.3637 24.6832 94.7506 23.214 99.5856C20.1225 109.715 29.5806 126.301 41.3343 119.17C43.5382 117.855 41.518 114.366 39.3142 115.713Z" fill="white"/>
  <path d="M69.4943 53.1938C85.7781 40.0047 97.8685 22.3477 104.419 2.45684C105.215 0.00873701 101.358 -1.06231 100.562 1.3858C94.1955 20.6646 82.4111 37.5872 66.6477 50.3785C64.6581 52.0004 67.5047 54.8157 69.4943 53.1938Z" fill="white"/>
  <path d="M81.34 48.6345C79.2892 50.134 81.2788 53.6225 83.3602 52.0925C98.1136 41.3208 109.102 26.4792 115.04 9.18943C115.867 6.74132 112.01 5.70088 111.183 8.11838C105.613 24.3371 95.2057 38.5055 81.34 48.6345Z" fill="white"/>
  <path d="M94.1345 47.2878C92.1143 48.9096 94.9916 51.725 96.9811 50.1337C106.225 42.667 114.306 33.9762 121.162 24.245C122.662 22.1335 119.172 20.1138 117.703 22.2253C111.03 31.6505 103.103 40.0353 94.1345 47.2878Z" fill="white"/>
  <path d="M77.3607 122.781C79.7175 118.895 81.9519 114.886 83.6966 110.724C84.7679 108.185 85.6556 105.247 84.4925 102.584C82.1662 97.3517 75.922 98.4227 72.953 102.187C67.2292 100.504 58.016 100.84 57.465 108.399C57.2508 111.336 59.1791 113.601 61.4748 115.162C65.6988 117.977 70.1982 119.966 74.1774 123.21C75.218 124.005 76.626 123.975 77.3607 122.781ZM70.6267 115.437C70.688 115.621 70.7798 115.774 70.8716 115.957C70.6574 115.804 70.4125 115.682 70.1982 115.529C70.3207 115.498 70.4737 115.468 70.6267 115.437Z" fill="white"/>
  <path d="M130.956 86.7328C127.344 82.4792 121.222 85.9678 119.967 90.4356C115.59 87.8957 110.326 92.0269 110.693 96.9537C111.305 104.482 120.518 106.409 126.242 108.643C127.222 109.011 128.477 108.215 128.721 107.236C129.762 102.829 130.956 98.4531 131.844 94.0465C132.364 91.5372 132.731 88.8137 130.956 86.7328ZM121.437 93.2509C121.437 93.2815 121.437 93.2815 121.437 93.2509C121.406 93.2815 121.406 93.3121 121.375 93.3427C121.375 93.3121 121.406 93.2815 121.406 93.2509H121.437ZM117.978 93.9241C117.947 93.9241 117.917 93.9547 117.886 93.9547C117.58 93.8017 117.243 93.7099 116.907 93.6793C117.213 93.6793 117.58 93.7711 117.978 93.9241Z" fill="white"/>
</svg>