<svg xmlns="http://www.w3.org/2000/svg" width="132" height="158" viewBox="0 0 132 158" fill="none">
  <path d="M79.9583 1.96262C66.215 -2.47457 50.6352 0.922183 38.6672 9.03153C26.6992 17.1409 18.0676 29.4732 12.405 42.7848C9.16046 50.4351 6.773 58.4832 5.39561 66.6844C3.65092 76.9664 3.49786 87.8605 7.5076 97.4693C9.95629 103.314 13.8436 108.425 16.9351 113.963C19.2001 118.033 21.0672 122.348 23.5159 126.326C28.7194 134.834 36.3716 141.535 44.2992 147.564C48.1865 150.532 52.1962 153.378 56.7263 155.214C71.3879 161.151 88.8348 154.786 99.7927 143.371C110.751 131.957 116.321 116.503 120.27 101.172C122.872 91.0737 124.892 80.7916 126.3 70.4484C127.004 65.3992 127.555 60.2581 126.82 55.1783C126.116 50.2209 124.218 45.5389 122.229 40.9793C119.688 35.1956 116.964 29.4426 113.26 24.3322C105.823 14.0807 95.6911 2.20744 83.0191 2.20744L79.9583 1.96262Z" fill="#366EFF"/>
  <path d="M42.3709 114.116C47.9723 128.132 60.1851 139.179 76.2241 136.211C93.6098 132.967 99.4254 116.656 101.507 101.142C101.721 99.4585 99.5785 97.4082 98.1399 99.1831C92.5079 106.191 84.8863 110.873 76.3159 113.443C71.847 114.79 67.2557 115.585 62.6032 115.983C57.8589 116.381 52.6554 116.932 48.3396 114.514C46.0746 113.26 44.0544 116.718 46.3194 117.972C50.4822 120.329 55.0123 120.451 59.6954 120.206C65.1743 119.9 70.6839 119.166 75.9792 117.727C85.6821 115.096 94.6199 109.955 100.956 102.06C99.8233 101.417 98.7214 100.744 97.5889 100.101C95.8136 113.26 91.9875 127.673 77.5403 131.773C63.0624 135.905 51.278 125.837 46.1664 113.076C45.2787 110.689 41.3914 111.699 42.3709 114.116Z" fill="white"/>
  <path d="M70.5004 94.4707C68.8475 97.1942 70.4086 100.744 73.5307 101.387C76.9588 102.121 78.6423 99.4281 80.9074 97.5308C82.8969 95.8783 80.0503 93.063 78.0607 94.6848C77.1119 95.4499 76.3773 96.7045 75.306 97.286C74.6632 97.6226 73.347 97.4696 73.9592 96.4903C75.306 94.287 71.8472 92.2674 70.5004 94.4707Z" fill="white"/>
  <path d="M15.7715 80.3938C16.1388 75.773 23.9134 72.9577 27.5559 71.5195C29.7597 70.6626 31.9329 69.9588 34.2898 69.8058C36.8303 69.6528 41.6053 69.5916 43.656 71.5195C45.5232 73.2943 48.3698 70.4484 46.5026 68.6735C41.3604 63.8385 31.6574 65.5522 25.8112 67.8779C20.3016 70.0812 12.2516 73.5391 11.7312 80.3632C11.5476 82.9643 15.5573 82.9643 15.7715 80.3938Z" fill="white"/>
  <path d="M48.1568 62.2166C40.6883 68.7041 39.6782 81.6484 47.514 88.2583C55.4416 94.9294 67.3178 95.5108 73.715 86.6058C79.0103 79.2003 79.4694 65.6745 71.0521 60.2887C64.1345 55.8821 54.3091 57.2286 48.1568 62.2166C46.1366 63.8384 49.0138 66.6538 51.0034 65.0625C55.2274 61.6351 61.8388 60.7171 66.8893 62.6756C74.4802 65.6439 74.9088 76.0484 71.5724 82.444C67.2872 90.6758 58.1352 90.8288 51.0952 85.9326C44.0246 81.0058 44.8817 70.3565 51.0034 65.0625C52.9317 63.3488 50.0851 60.5335 48.1568 62.2166Z" fill="white"/>
  <path d="M82.9893 70.0202C80.4488 79.3536 82.1935 91.3187 93.7636 92.2368C104.017 93.0324 113.935 84.923 115.557 74.8552C116.934 66.0726 111.639 56.4944 102.701 54.3829C93.2432 52.1491 85.438 62.0333 82.9893 70.0202C82.2241 72.4989 86.1114 73.5394 86.846 71.0913C88.5907 65.3382 94.1615 57.2289 101.079 58.1469C108.15 59.0649 112.374 67.0213 111.67 73.57C110.874 81.0061 104.293 87.2181 96.9469 88.1668C92.3862 88.7482 87.6725 87.1263 86.4175 82.3219C85.4992 78.8028 85.9278 74.5798 86.846 71.1219C87.55 68.5819 83.6627 67.5109 82.9893 70.0202Z" fill="white"/>
  <path d="M113.016 66.5009C116.016 64.726 120.515 65.1238 123.882 65.2156C124.525 65.2462 127.035 64.9708 127.586 65.4299C128.381 66.1031 127.28 70.9075 126.698 72.1315C125.596 74.4573 129.055 76.5075 130.157 74.1512C132.116 69.9895 133.218 61.9107 127.004 61.3599C122.045 60.9315 115.403 60.3806 110.965 63.0123C108.761 64.3588 110.781 67.8168 113.016 66.5009Z" fill="white"/>
  <path d="M75.2452 68.5203C78.2449 67.9083 81.2751 67.7859 84.336 68.0919C86.9071 68.3673 86.8765 64.328 84.336 64.0832C80.9078 63.7465 77.5409 63.9608 74.2045 64.634C71.664 65.1542 72.7353 69.0406 75.2452 68.5203Z" fill="white"/>
  <path d="M59.0825 70.5708C54.6443 67.2046 48.1246 70.6932 48.8898 76.3544C49.2265 78.8943 51.0631 80.6998 53.022 82.1687C54.8279 83.5457 58.0418 86.9731 60.4905 85.596C62.8474 84.2496 65.1737 80.761 66.5204 78.4353C67.8672 76.1096 69.0609 73.2025 68.3263 70.4484C67.6529 67.9697 65.3573 66.5314 62.8474 66.7762C60.0008 67.0516 58.1949 69.2855 56.6338 71.397C55.1034 73.4779 58.5622 75.467 60.0926 73.4167C60.7966 72.4681 62.9086 69.3467 64.4697 71.5194C64.8982 72.1315 64.3778 73.5085 64.1636 74.1511C63.7044 75.5588 62.8474 76.8746 61.9597 78.0681C61.4394 78.7719 60.215 80.7916 59.358 81.1588C58.501 81.5261 58.0112 80.761 57.0318 80.0878C56.0829 79.4146 55.0728 78.7719 54.2158 77.9457C51.6446 75.3752 53.9403 71.6112 57.093 74.0287C59.1131 75.62 61.1027 72.1314 59.0825 70.5708Z" fill="white"/>
  <path d="M101.354 70.9991C101.14 65.8581 94.8654 65.1543 92.2025 68.9794C90.7027 71.1215 90.4884 73.9675 91.2842 76.4156C92.1719 79.1391 94.4369 81.0057 95.8755 83.362C96.6101 84.5555 98.0181 84.5555 99.0282 83.7599C101.416 81.8626 103.497 79.6593 105.211 77.1194C106.558 75.1609 108.548 72.162 108.456 69.7139C108.394 67.2964 105.946 66.1641 103.773 66.3477C101.416 66.5313 99.7935 68.1226 98.967 70.2341C98.0182 72.621 101.875 73.6614 102.824 71.3051C102.946 70.9685 104.14 69.9587 104.538 70.3565C104.201 70.0199 103.773 71.4887 103.65 71.7642C103.099 72.927 102.456 74.0593 101.722 75.1303C100.191 77.3642 98.2936 79.2921 96.151 80.9751C97.1917 81.0975 98.263 81.2506 99.3037 81.373C98.2936 79.7205 96.8856 78.374 95.8449 76.7522C95.2328 75.8035 94.8042 74.7937 94.8042 73.6308C94.8042 72.8046 94.9879 72.0396 95.4164 71.3357C96.4265 70.2035 97.0693 70.0811 97.3141 70.9991C97.4366 73.5696 101.446 73.5696 101.354 70.9991Z" fill="white"/>
  <path d="M32.9426 78.8025C29.0247 76.3544 23.9743 76.3238 20.1788 79.0779C15.4957 82.4746 15.006 88.6255 15.9242 93.8889C16.7201 98.6015 17.822 103.987 22.9948 105.517C27.5249 106.864 32.3917 105.058 32.6672 99.9174C32.8202 97.3469 28.7799 97.3469 28.6574 99.9174C28.5044 102.672 24.5865 102.121 23.2091 101.356C21.9848 100.682 21.4338 99.3972 21.0053 98.1425C20.087 95.4802 19.4442 92.3589 19.4748 89.5435C19.5667 83.3009 25.1068 78.6495 30.9225 82.291C33.0957 83.6375 35.1159 80.1796 32.9426 78.8025Z" fill="white"/>
  <path d="M48.7981 18.4263C57.491 23.2307 57.644 33.9718 57.5522 42.6931C57.5522 44.1314 58.8378 44.8046 60.0927 44.621C66.3675 43.7642 72.6729 43.397 78.9783 43.5194C84.947 43.6418 91.0075 44.6822 96.9762 44.162C102.975 43.6418 119.259 40.857 116.719 31.6767C116.045 29.1979 112.158 30.2384 112.862 32.7477C113.229 34.0942 110.995 36.022 109.954 36.5117C108.822 37.0319 107.659 37.4909 106.526 37.9193C104.445 38.6843 102.302 39.2964 100.129 39.7248C95.3233 40.6428 90.5177 40.1532 85.7122 39.8166C76.8051 39.174 67.8979 39.5718 59.052 40.7652C59.9091 41.4079 60.7355 42.0505 61.5926 42.6931C61.6844 32.4417 60.8886 20.5072 50.8489 14.9377C48.5533 13.7137 46.5331 17.1716 48.7981 18.4263Z" fill="white"/>
  <path d="M55.1656 11.235C59.8794 11.7246 64.3176 15.3661 67.7458 18.4263C71.2964 21.6088 73.9288 25.281 74.7246 30.0548C75.1531 32.5947 79.0098 31.5236 78.5813 28.9837C77.6018 23.1083 74.0818 18.4875 69.5823 14.7235C65.3277 11.1737 60.7976 7.77701 55.1656 7.19558C52.5945 6.95077 52.5945 10.9595 55.1656 11.235Z" fill="white"/>
  <path d="M73.3778 5.35949C86.2641 8.41963 95.9364 18.7323 97.6811 31.9826C98.0178 34.4919 102.028 34.5532 101.691 31.9826C99.7013 16.988 89.2331 5.02287 74.4491 1.50372C71.9392 0.891691 70.8679 4.74747 73.3778 5.35949Z" fill="white"/>
  <path d="M45.1256 18.8544C44.2685 26.5353 42.8605 34.1244 40.871 41.5912C39.1263 48.1398 37.1061 55.6984 31.1986 59.7377C22.6282 65.6132 7.53814 64.4809 5.08945 77.2417C4.59971 79.751 8.48701 80.8526 8.94614 78.3127C10.3847 70.846 18.496 68.8875 24.7096 66.8984C30.0661 65.1848 34.9023 62.9203 38.2998 58.2689C41.9423 53.3115 43.5951 47.0688 45.095 41.1933C46.9927 33.8184 48.2783 26.3517 49.1353 18.8238C49.4108 16.2839 45.401 16.3145 45.1256 18.8544Z" fill="white"/>
  <path d="M30.9236 19.4972C25.3834 33.1148 16.3232 46.0898 1.41683 50.1597C-1.06247 50.833 -0.0217727 54.7193 2.48814 54.0155C18.8025 49.5783 28.7198 35.5017 34.7803 20.5683C35.7597 18.1814 31.8724 17.1409 30.9236 19.4972Z" fill="white"/>
  <path d="M59.1746 78.068C59.8786 75.7729 58.8685 72.2231 55.7158 73.08C53.665 73.6308 52.5631 76.8745 53.8487 78.5882C54.4303 79.3532 55.1343 79.6898 56.1137 79.5062C58.3176 79.1084 59.0828 76.0789 58.2564 74.2428C57.3075 72.1313 54.5221 71.8865 52.9917 73.539C51.4306 75.2527 52.104 77.8538 54.0017 79.0166C55.8077 80.1183 58.4094 79.5674 58.44 77.1499C58.4706 75.1608 56.6341 73.1106 54.8282 72.5597C52.5325 71.8559 50.9409 73.998 51.4306 76.1401C51.8897 78.1292 54.0017 80.1489 55.9301 80.7609C58.44 81.5871 60.5214 79.9653 61.96 78.0986C60.9193 77.303 59.848 76.4767 58.8073 75.6811C58.1033 76.8745 57.6442 78.0986 57.4299 79.445C57.1238 81.4341 59.1746 82.75 60.7969 81.4035C63.6129 78.986 65.1433 75.4057 64.9596 71.7029C64.8678 69.8974 62.8782 69.163 61.5315 70.2952C59.7255 71.8253 58.5624 73.8144 57.6136 75.9565C56.9096 77.5478 55.7464 79.8734 57.5217 81.2199C61.5927 84.3412 64.072 74.2122 64.3781 71.8865C64.5923 70.2034 61.9906 69.163 60.9499 70.4789C59.3276 72.5291 58.1645 74.7324 57.583 77.2723C57.0014 79.7817 60.8887 80.8527 61.4396 78.3434C61.8682 76.5073 62.6028 74.7936 63.7659 73.3248C62.6334 72.8657 61.4703 72.3761 60.3377 71.9171C60.0929 73.9674 59.297 76.9663 57.583 78.3434C58.2257 78.1598 58.8991 78.0068 59.5419 77.8232C59.4501 77.7926 59.3583 77.762 59.2664 77.762C59.6643 78.068 60.0622 78.374 60.4602 78.68C60.8887 79.5674 60.8275 78.5882 61.0723 78.0068C61.3478 77.3641 61.6539 76.7521 61.96 76.1401C62.6028 74.9772 63.3374 74.0286 64.3475 73.1718C63.2149 72.7127 62.0518 72.2231 60.9193 71.7641C61.0417 74.5182 60.0317 76.8439 57.9503 78.6188C59.0828 79.2614 60.1847 79.9347 61.3172 80.5773C61.4703 79.5368 61.7457 78.68 62.2967 77.762C63.3986 75.8647 60.5826 73.4778 59.144 75.3445C58.6543 75.9565 57.9197 77.1805 57.032 76.9663C56.2056 76.7521 55.8383 75.2527 55.1343 75.9259C54.6751 76.1095 54.1854 76.3237 53.7263 76.5073C54.5527 76.4155 54.0017 77.9456 54.6139 76.5685C55.0118 76.2625 55.4097 75.9565 55.8077 75.6505C56.3586 75.5587 56.2056 75.6505 55.3179 75.8953C54.8282 75.8953 54.4609 76.1095 54.2772 76.5379C54.6751 76.2319 55.073 75.9259 55.471 75.6199C55.3485 75.6505 55.1955 75.6811 55.073 75.6811C55.8383 75.9871 56.5729 76.2931 57.3381 76.5991C57.3687 77.1499 57.3993 77.1805 57.3993 76.6603C56.1443 75.9565 55.4403 76.0789 55.3179 77.0275C54.5527 79.4756 58.4094 80.5467 59.1746 78.068Z" fill="white"/>
  <path d="M93.5175 74.8244C93.7317 76.8135 95.1703 79.0168 97.4966 77.9457C99.5168 76.9971 99.1801 74.0593 98.9352 72.2539C98.6291 70.1118 95.6601 70.6014 95.0785 72.2539C94.7724 73.1413 94.65 74.0287 94.6806 74.9468C94.8337 77.5785 98.3536 77.4561 98.6903 74.9468C98.8434 73.7533 98.8434 72.6211 98.6903 71.4276C98.4455 69.4079 96.1804 68.7653 94.9561 70.4178C93.395 72.5293 93.3338 77.5479 97.0987 77.1501C100.343 76.8134 100.711 71.9785 99.1189 69.8364C98.2312 68.6123 95.7519 68.4287 95.4458 70.326C95.0479 72.8047 94.0684 77.5173 96.7926 79.0473C99.8229 80.7304 102.516 76.7829 104.047 74.7326C105.332 73.0189 102.914 71.1522 101.292 71.9785C100.527 72.3763 99.9759 73.0495 99.8229 73.9369C99.578 75.5894 101.139 77.1195 102.761 76.2014C104.414 75.2834 106.434 73.1107 105.485 71.0604C104.384 68.7041 101.261 69.8363 100.864 72.0396C100.588 73.5391 102.272 75.467 103.802 74.3041C104.322 73.9063 104.843 73.5391 105.363 73.1413C106.802 72.0703 106.557 69.2549 104.353 69.4079C101.353 69.5915 98.17 72.1008 97.9863 75.2222C97.8333 77.7927 101.843 77.7927 101.996 75.2222C102.027 74.4878 103.71 73.4473 104.322 73.4167C103.986 72.162 103.649 70.938 103.312 69.6834C102.792 70.0812 102.272 70.4484 101.751 70.8462C102.731 71.6112 103.71 72.3457 104.69 73.1107C104.567 73.2331 104.445 73.3555 104.292 73.4779C103.771 73.5391 103.251 73.6003 102.731 73.6921C102.823 73.7227 102.945 73.7533 103.037 73.7839C102.578 73.3249 102.088 72.8353 101.629 72.3763C101.721 71.7336 101.659 71.6724 101.384 72.2233C101.17 72.4681 100.925 72.6517 100.649 72.7741C101.629 73.5391 102.608 74.2735 103.588 75.0386C103.465 75.1916 103.343 75.3446 103.22 75.467C102.302 74.5489 101.384 73.6309 100.466 72.7129C99.9759 73.3861 99.4555 74.0287 98.874 74.6102C98.7515 74.7632 98.5985 74.8856 98.4761 75.0386C97.8945 75.3752 98.0476 75.62 98.9964 75.7424C99.0576 75.7118 98.9658 73.9981 98.9658 73.9063C98.9964 73.0495 99.0576 72.2233 99.2107 71.397C97.9863 71.55 96.762 71.703 95.5377 71.8866C95.9968 72.5293 95.5376 73.0495 95.8131 73.6615C97.2211 74.4266 97.8639 74.3347 97.7721 73.3861C97.8639 73.0189 98.0476 72.7129 98.323 72.4375C97.0681 72.1009 95.8437 71.7642 94.5888 71.4276C94.7418 72.6211 94.7418 73.7533 94.5888 74.9468C95.9356 74.9468 97.2517 74.9468 98.5985 74.9468C98.5679 74.3041 98.6291 73.9063 98.8434 73.2943C97.5578 73.2943 96.2723 73.2943 94.9867 73.2943C95.1091 74.0287 95.0785 74.7938 94.803 75.4976C95.1091 75.0998 95.4152 74.702 95.7213 74.3041C95.6295 74.3653 95.507 74.3959 95.4152 74.4571C95.9356 74.3959 96.4559 74.3347 96.9763 74.2429C97.1599 74.4265 97.3129 74.6101 97.4966 74.7938C97.2517 72.2844 93.242 72.2539 93.5175 74.8244Z" fill="white"/>
</svg>