<svg xmlns="http://www.w3.org/2000/svg" width="141" height="185" viewBox="0 0 141 185" fill="none">
  <path d="M82.9399 29.7071C70.8495 23.9541 56.2492 23.7399 43.9751 29.1257C31.7316 34.5115 22.0287 45.4362 18.1108 58.2582C16.8558 62.3587 16.1825 66.7041 16.7946 70.9271C17.7129 77.1698 21.3553 82.6474 23.6816 88.5229C27.8444 99.0497 27.7525 110.709 28.4259 122.031C29.1299 133.354 30.9664 145.258 38.0983 154.04C40.1796 156.58 42.6589 158.814 45.628 160.252C49.0868 161.905 53.6168 162.7 57.3511 163.557C61.973 164.598 66.9316 163.649 71.4004 162.333C80.8585 159.487 90.1329 154.346 95.1221 145.809C98.1218 140.668 99.3155 134.731 100.479 128.886C102.223 120.042 103.019 110.066 105.927 101.559C108.376 94.4289 111.161 86.442 111.161 78.6998C112.232 69.1522 111.865 59.0232 107.182 50.6384C103.08 43.2941 96.1016 38.0613 89.3065 33.0427L82.9399 29.7071Z" fill="#FFBA00"/>
  <path d="M73.3905 131.671C72.5335 131.793 71.7071 131.916 70.85 132.038C69.9624 131.365 69.4114 130.539 69.2278 129.529C68.9217 128.611 68.9217 127.57 68.8911 126.622C68.7992 124.51 68.8604 122.429 68.7686 120.318C68.585 116.095 68.1871 111.872 67.5443 107.679C66.4424 100.335 65.2792 91.1241 60.6267 85.0345C57.0149 80.2913 50.8319 78.4858 45.0775 79.4344C38.1906 80.5361 32.8953 85.3405 28.9468 90.8181C27.4163 92.899 30.9057 94.9187 32.4056 92.8378C37.2111 86.1973 46.1182 80.0465 54.3826 84.7897C58.2392 86.993 59.7085 91.3383 60.841 95.3777C62.0653 99.7537 62.9836 104.252 63.657 108.751C64.3304 113.341 64.6977 117.961 64.7895 122.582C64.8507 125.826 64.514 129.406 65.9832 132.405C68.0646 136.628 74.0946 137.944 76.7881 133.66C78.2267 131.518 74.7679 129.498 73.3905 131.671Z" fill="white"/>
  <path d="M36.5074 103.059C37.0584 101.988 37.6706 100.58 38.5582 99.7234C40.5172 97.8567 41.4661 99.3256 43.1189 100.427C44.2821 101.223 45.2615 101.682 46.7307 101.621C50.0977 101.468 52.0872 98.8053 53.6483 96.143C54.9645 93.9091 51.4751 91.8894 50.1895 94.1233C49.7304 94.919 49.057 96.296 48.2918 96.8163C45.8737 98.4993 45.3228 96.5715 44.0984 95.6534C42.9965 94.8272 41.6497 94.5211 40.3029 94.6436C36.6299 94.9802 34.6097 98.0403 33.0487 101.039C31.8549 103.334 35.3137 105.354 36.5074 103.059Z" fill="white"/>
  <path d="M76.5131 98.0401C78.7475 97.4893 79.5127 95.2554 81.3798 94.0314C84.655 91.8893 86.216 94.8882 89.0626 95.745C93.7151 97.1527 95.5822 92.2565 97.5412 89.1658C98.9186 86.9625 95.4292 84.9428 94.0824 87.1461C93.5009 88.0947 93.0723 89.074 92.5214 90.0226C91.3888 91.9811 90.2869 91.4303 88.4504 90.6346C86.8282 89.9308 85.8793 89.1045 83.9816 89.1351C82.3287 89.1658 80.7677 89.686 79.3903 90.5734C78.1965 91.3078 76.6967 93.8784 75.503 94.1844C72.9318 94.7964 74.0031 98.6828 76.5131 98.0401Z" fill="white"/>
  <path d="M78.319 80.1383C82.2063 73.8038 89.736 72.1207 96.0414 75.9765C98.2452 77.3229 100.265 73.865 98.0616 72.5185C89.8585 67.5305 79.8495 69.9786 74.8296 78.1186C73.5135 80.3218 76.9723 82.3415 78.319 80.1383Z" fill="white"/>
  <path d="M93.0723 137.455C93.9906 136.292 95.368 134.854 96.0108 133.324C98.3064 133.507 99.1941 129.927 96.776 129.407C95.2149 129.07 93.9906 128.397 93.0723 127.02C91.6337 124.908 88.2668 126.806 89.6136 129.039C89.6748 129.131 89.736 129.254 89.8278 129.345C90.4094 130.172 91.0522 130.845 91.7562 131.426C91.9092 131.671 92.0316 131.885 92.0316 132.069C92.0316 133.446 88.7871 136.353 87.8689 137.363C87.8077 137.424 87.7771 137.455 87.7158 137.516C87.6546 137.516 87.5934 137.547 87.5322 137.547C84.8386 138.189 82.3287 138.281 79.6351 137.975C79.3903 137.944 79.176 137.975 78.9618 138.006C76.1152 137.791 73.3298 138.128 70.7586 139.689C69.0752 140.699 68.2181 141.096 66.1367 140.852C64.6675 140.699 63.5044 140.27 61.974 140.484C59.1886 140.852 56.9541 142.81 54.1075 142.81C53.4953 142.81 53.0362 143.024 52.6995 143.391C50.1284 142.167 47.6491 140.79 45.231 139.413C45.4759 138.985 45.7208 138.526 45.9044 138.097C46.3636 137.118 46.1799 135.925 45.1698 135.343C44.3128 134.823 42.8742 135.068 42.415 136.078C41.5886 137.822 40.5785 139.383 39.2623 140.79C37.5176 142.688 40.3336 145.534 42.1089 143.636C42.3844 143.33 42.6293 143.055 42.9048 142.749C54.23 149.175 66.6571 154.959 79.4209 148.869C84.8386 146.299 89.3993 142.106 93.0723 137.455ZM73.4522 142.902C73.4216 142.902 73.391 142.902 73.3604 142.902C73.4216 142.871 73.4828 142.841 73.544 142.81C73.4828 142.841 73.4828 142.871 73.4522 142.902Z" fill="white"/>
  <path d="M28.0591 105.14C18.9683 105.813 17.3767 115.422 19.4581 122.674C20.6824 127.02 24.4473 142.137 32.0688 136.261C34.089 134.7 32.0994 131.212 30.0487 132.803C26.8654 135.251 23.8963 123.592 23.3148 121.603C22.0598 117.196 21.7843 109.607 28.0591 109.118C30.6302 108.965 30.6608 104.925 28.0591 105.14Z" fill="white"/>
  <path d="M125.701 68.9995C123.497 61.9918 121.355 54.7393 118.416 48.007C112.968 35.6135 95.9494 29.6462 83.4917 28.3916C83.4305 28.2691 83.3386 28.1773 83.2468 28.0855C83.2468 27.2899 82.8489 26.4637 81.9 26.0965C66.6569 20.221 48.6284 24.0768 34.6403 31.6659C20.8358 39.1632 12.8775 55.7185 7.91892 69.9787C5.25597 77.6597 3.54188 85.7078 3.05214 93.8172C2.53179 102.814 3.97039 111.688 5.40899 120.563C6.90882 129.651 8.34744 138.771 9.93909 147.859C11.3777 156.03 13.153 164.323 16.8872 171.789C19.8869 177.787 24.9985 183.969 32.1304 184.764C38.2521 185.438 44.8635 181.857 45.9961 175.492C46.3328 173.595 44.2208 172.493 42.9658 173.166C45.2615 170.412 44.986 166.128 41.4048 164.108C39.1397 162.854 37.1196 166.312 39.3846 167.566C40.8844 170.167 40.211 171.545 37.4256 171.667C36.0789 171.636 34.8852 171.208 33.7832 170.412C31.8855 169.158 30.3244 167.23 29.0083 165.394C26.9881 162.517 25.3353 159.335 23.8354 156.152C20.7746 149.573 18.6932 142.534 17.5607 135.374C15.3874 121.542 16.826 106.915 22.1519 93.9702C25.4577 85.9832 30.6305 81.3318 38.3439 77.5985C44.986 74.3547 51.9954 72.0596 59.0354 69.8869C66.259 67.653 73.5745 65.6028 80.6451 62.8792C85.6649 60.9514 90.7765 58.7175 93.3783 53.7295C95.4597 54.9535 97.4186 56.2999 99.1327 57.9218C108.285 66.5208 102.898 80.628 104.153 91.6139C104.734 96.8467 106.509 101.161 109.142 105.66C112.845 111.964 112.478 118.512 111.101 125.52C109.938 131.457 107.979 137.24 105.867 142.902C104.826 145.625 103.908 148.471 102.53 151.072C101.122 153.765 96.2249 159.977 92.9191 156.152C91.3581 154.347 88.787 156.672 89.7971 158.57C88.94 159.09 88.3584 160.161 89.0012 161.293C94.1741 170.81 106.081 174.574 115.57 169.035C120.681 166.036 123.436 160.987 125.334 155.571C127.813 148.594 129.252 141.249 130.568 133.997C133.2 119.43 133.812 104.956 131.149 90.3592C129.833 83.0761 127.905 76.0072 125.701 68.9995ZM71.5543 61.8388C64.5755 64.1033 57.5049 66.0618 50.5568 68.4181C43.7616 70.7132 36.9359 73.3755 30.7836 77.1395C25.2434 80.5362 21.601 85.3406 19.0298 91.2467C8.65351 114.963 10.6431 145.962 25.5801 167.444C28.7634 172.034 34.426 177.787 40.5783 175.033C41.2517 174.727 41.8333 174.329 42.3537 173.87C42.2618 174.023 42.2006 174.237 42.17 174.452C40.8232 182.01 31.4263 182.041 26.529 178.032C21.3561 173.778 18.7238 166.832 16.8872 160.62C12.7551 146.604 11.2859 131.61 8.92899 117.227C6.5109 102.355 6.32725 88.2477 10.9186 73.7427C13.153 66.735 16.1833 59.9721 19.8563 53.607C23.3457 47.5174 27.2636 41.4583 33.1098 37.3578C45.3839 28.7282 63.6267 24.6582 78.2576 29.0954C63.443 36.6845 48.1693 43.8452 33.8444 52.2912C21.6316 59.4825 14.1937 71.6618 17.5607 86.075C18.1422 88.5843 22.0295 87.5133 21.4173 85.004C19.7951 78.0881 21.0194 70.7132 25.1516 64.8683C29.2225 59.1153 35.681 55.7185 41.7721 52.536C49.6079 48.4354 57.4743 44.3654 65.3102 40.2955C65.1877 41.1829 65.5856 42.1316 66.6875 42.4988C73.0847 44.4879 79.3289 46.8442 85.3588 49.6901C86.828 50.3939 88.3585 51.0977 89.8583 51.8628C86.4913 57.983 77.676 59.8497 71.5543 61.8388ZM123.069 149.359C120.987 156.733 118.202 164.567 110.121 166.985C103.693 168.913 97.2656 166.189 93.5313 160.956C95.6433 161.385 98.0308 160.834 99.9897 159.732C103.999 157.499 106.081 153.276 107.703 149.175C111.988 138.495 116.335 126.928 116.121 115.238C116.029 109.424 113.458 105.599 110.856 100.641C107.887 94.98 107.642 88.5231 107.948 82.2499C108.438 72.2738 109.693 62.0224 101.49 54.6781C97.2044 50.8529 91.8172 48.2824 86.675 45.8955C80.6757 43.1108 74.4927 40.7545 68.1873 38.7654C72.7786 36.3785 77.3393 34.0222 81.9306 31.6353C82.2367 32.0331 82.7264 32.3085 83.3386 32.3697C90.6235 33.0736 97.6635 35.3074 103.938 39.102C107.428 41.2135 111.192 43.7534 113.488 47.2114C115.416 50.1185 116.304 53.7601 117.437 57.0344C122.61 71.876 127.599 87.0543 128.762 102.814C129.894 118.359 127.262 134.456 123.069 149.359Z" fill="white"/>
  <path d="M13.1223 44.7022C14.0712 45.253 14.9894 44.947 15.5404 44.3043C15.9077 44.1513 16.2444 43.8759 16.5199 43.5087C17.5912 42.0092 17.5912 39.1021 17.9279 37.3272C18.387 34.9403 18.8462 32.584 19.1216 30.1665C19.5502 26.5862 20.0705 21.4452 17.836 18.2626C16.428 16.2735 13.9488 15.6309 11.9286 17.1916C10.7349 18.1096 10.0309 19.3949 9.63295 20.8637C8.65347 19.6703 7.42912 18.7828 5.68442 18.4768C2.47052 17.9566 0.480968 20.2211 0.113664 23.2506C-0.988247 31.972 6.11296 40.571 13.1223 44.7022ZM4.03155 24.4135C5.04164 20.1599 9.02076 27.3818 9.54111 28.1162C10.9491 29.9829 13.5202 28.8507 13.2141 26.5556C12.9387 25.0867 13.0305 23.6485 13.459 22.2408C14.2855 20.2211 14.8364 20.1293 15.0507 21.9654C15.8465 23.679 15.418 26.8616 15.2649 28.7283C15.0813 30.9928 14.6222 33.2573 14.2242 35.4912C14.01 36.6234 13.9794 38.7349 13.5815 40.2344C10.2757 37.9699 7.58217 34.9709 5.80687 31.3294C4.94982 29.4933 3.57242 26.4332 4.03155 24.4135Z" fill="white"/>
  <path d="M27.569 22.8527C27.7833 23.0976 27.9975 23.2506 28.2118 23.3424C28.6403 24.597 30.3238 25.4539 31.5175 24.1992C34.8845 20.6495 41.3123 13.9477 39.6288 8.50072C39.0779 6.72584 37.6086 5.16518 35.7109 4.88976C34.3947 4.70616 33.4765 5.13458 32.65 5.77721C32.1909 3.78812 31.2726 1.92144 29.5892 0.819792C27.3241 -0.649071 24.3551 -0.128845 23.0083 2.25806C21.4779 4.98158 22.4267 9.11274 22.8553 12.0199C23.4674 16.151 24.7836 19.762 27.569 22.8527ZM26.2834 5.59359C28.7015 2.74767 29.0688 8.80674 29.0994 9.69417C29.13 11.163 30.8135 12.2647 32.1297 11.4385C32.497 11.1936 33.5071 10.1226 33.9356 10.0308C34.7008 8.77613 35.2824 9.17395 35.7109 11.2854C35.4048 12.0811 35.0375 12.8461 34.609 13.5805C33.3846 15.8144 31.8848 17.8647 30.2013 19.762C27.7832 16.8855 26.9874 13.3357 26.5895 9.66358C26.4977 8.92915 25.8243 6.11381 26.2834 5.59359Z" fill="white"/>
  <path d="M112.478 31.6048C112.998 32.125 113.61 32.278 114.161 32.1556C114.192 32.2168 114.222 32.278 114.253 32.3392C114.773 33.2878 116.089 33.5939 117.008 33.0736C120.375 31.0846 122.976 25.6069 124.843 22.302C126.741 18.9358 128.669 14.8046 127.476 10.8571C126.711 8.34777 124.537 6.05266 121.752 6.51168C120.619 6.69529 119.64 7.27673 118.844 8.07236C118.354 6.6341 117.589 5.34884 116.304 4.55321C113.641 2.93134 110.427 4.5532 109.141 7.12371C107.335 10.7653 107.947 16.2735 108.253 20.1599C108.56 24.3217 109.417 28.5446 112.478 31.6048ZM112.141 14.2844C112.171 13.3664 112.141 12.4483 112.233 11.5303C112.294 10.7041 112.998 7.61334 114.712 8.62318C115.661 9.174 115.844 13.1828 116.059 14.1926C116.457 16.2123 119.395 15.9981 119.915 14.1926C120.099 13.3052 120.466 12.479 120.987 11.7445C123.313 11.0407 124.262 11.7445 123.803 13.9172C123.711 15.9675 122.701 17.926 121.721 19.7009C120.895 21.2003 120.007 22.6386 119.089 24.0463C118.232 25.3315 116.977 27.8408 115.661 29.0955H115.63C115.538 28.9731 115.447 28.8813 115.355 28.7588C111.743 25.1785 112.049 18.9664 112.141 14.2844Z" fill="white"/>
  <path d="M138.617 34.4201C137.607 33.6551 136.352 33.5633 135.127 33.8081C135.189 32.0638 134.913 30.3501 133.597 29.1261C131.546 27.2594 128.761 28.1775 127.047 29.9829C121.507 35.736 121.476 43.8759 122.241 51.2508C122.364 52.4749 123.374 53.1175 124.323 53.1481C124.476 53.2399 124.659 53.3011 124.874 53.3317C124.935 53.3317 124.965 53.3623 125.027 53.3623C126.067 53.5459 127.23 53.0869 127.506 51.9547C127.506 51.9241 127.506 51.8935 127.536 51.8629C129.128 50.088 134.117 48.9252 135.862 47.7011C138.188 46.0792 140.025 43.9065 140.453 41.03C140.729 39.0103 140.423 35.7666 138.617 34.4201ZM136.015 41.8562C135.342 43.0191 134.423 43.9371 133.26 44.6104C132.036 45.406 130.659 45.9568 129.342 46.5688C128.363 47.0279 127.047 47.5175 125.914 48.1907C125.639 45.0694 125.547 41.8563 126.526 38.8879C127.016 37.3885 127.965 34.6343 129.281 33.5633C131.577 31.7272 131.026 35.0933 130.842 36.7152C130.659 38.3371 132.648 39.0715 133.872 38.4595C136.535 38.6431 137.27 39.7753 136.015 41.8562Z" fill="white"/>
  <path d="M28.1504 6.84796C28.181 6.32774 28.181 5.77691 28.2116 5.25669C26.8955 5.4403 25.5793 5.62391 24.2631 5.77691C25.1202 8.10261 25.8242 10.4283 26.4364 12.8152C26.9873 14.9879 30.4461 14.5595 30.3848 12.295C30.293 9.90809 30.2318 7.49058 30.14 5.10368C30.0482 2.53317 26.1303 2.50257 26.1303 5.10368C26.1303 9.90809 26.3751 14.6513 26.8649 19.4251C27.0791 21.5366 30.2318 22.3322 30.8134 19.9453C31.2419 18.1704 31.6704 16.4262 32.099 14.6513C30.8134 14.2841 29.5278 13.9475 28.2422 13.5803C27.9974 15.4469 28.1504 16.824 29.1911 18.4458C30.2012 20.0065 32.2214 19.5169 32.8642 17.9562C33.66 15.9978 35.221 9.87748 31.3031 9.93869C28.5177 9.96929 26.773 13.7332 27.5995 16.0589C27.9362 17.0076 28.579 17.4054 29.5278 17.5278C32.4969 17.9256 34.517 13.6108 35.5271 11.4075C34.7619 11.7136 34.0273 12.0196 33.2621 12.3256C33.9661 12.5092 34.517 12.5704 35.2516 12.6316C34.5782 11.9584 33.9049 11.2851 33.2315 10.6119C33.2315 11.0097 33.2621 11.4076 33.2621 11.8054C33.3233 14.3759 37.2718 14.4065 37.2718 11.8054C37.2718 11.683 37.2718 11.53 37.2718 11.4075C37.2718 8.83704 33.2621 8.83704 33.2621 11.4075C33.2621 11.53 33.2621 11.683 33.2621 11.8054C34.6089 11.8054 35.925 11.8054 37.2718 11.8054C37.2718 11.4076 37.2412 11.0097 37.2412 10.6119C37.2106 9.47967 36.3536 8.68404 35.221 8.59224C34.9149 8.53104 34.6089 8.50044 34.3028 8.43923C33.5069 8.22502 32.405 8.56164 32.0377 9.35727C31.8235 9.81629 30.1706 13.5802 29.4972 13.519C30.14 14.0087 30.7828 14.4983 31.4256 14.9879C31.2725 14.6207 31.1501 14.2841 30.997 13.9169C30.5379 13.4578 30.0482 12.9682 29.589 12.5092C30.1706 13.8863 29.436 15.5999 28.9157 16.8852C30.14 16.7322 31.3643 16.5792 32.5887 16.3956C32.405 15.8141 32.2214 15.2021 32.0683 14.6207C32.405 12.142 28.8238 10.9791 28.2116 13.5496C27.7831 15.3245 27.3546 17.0688 26.9261 18.8437C28.2423 19.0273 29.5584 19.2109 30.8746 19.3639C30.3543 14.5901 30.1094 9.84688 30.14 5.04248C28.7932 5.04248 27.4771 5.04248 26.1303 5.04248C26.2221 7.42938 26.2833 9.84688 26.3751 12.2338C27.6913 12.0502 29.0075 11.8666 30.3236 11.7136C29.7115 9.32666 28.9769 7.00096 28.1504 4.67526C27.3852 2.59437 24.2937 2.86978 24.2019 5.19548C24.1713 5.7157 24.1713 6.26653 24.1407 6.78675C24.0489 9.41847 28.0586 9.41847 28.1504 6.84796Z" fill="white"/>
  <path d="M14.7438 31.1453C15.0499 28.6666 15.4478 26.2185 15.9069 23.7704C16.2742 21.6895 13.2746 20.0065 12.2339 22.2098C11.6523 23.4644 11.3768 24.5048 11.3462 25.8819C11.285 28.483 15.2641 28.4524 15.356 25.8819C15.4172 24.3212 15.4784 22.73 15.5396 21.1693C14.2234 21.3529 12.9073 21.5365 11.5911 21.6895C12.2951 25.3923 12.2033 28.8808 11.3462 32.553C10.8565 34.6645 14.0092 36.2557 15.0193 34.1137C15.7233 32.5836 16.4579 31.0841 17.1619 29.5541C15.9069 29.2175 14.6826 28.8808 13.4276 28.5442C13.4582 29.7989 13.5195 31.1453 13.0297 32.3388C13.4888 31.8798 13.9786 31.3901 14.4377 30.9311C14.652 30.8699 11.3156 25.8207 10.9789 25.3311C9.78521 23.5562 7.48954 24.413 7.24467 26.3409C6.96919 28.4524 7.06101 30.3191 7.42831 32.4C7.85683 34.9399 11.6829 33.8382 11.285 31.3289C10.8259 28.2688 9.47911 25.7289 7.36711 23.4644C6.2652 22.2709 3.7247 23.1278 3.93896 24.8721C4.21444 27.1671 4.76539 29.1256 5.77548 31.2065C6.66313 32.9814 9.63215 32.1552 9.50972 30.1967C9.32607 27.3508 8.65267 24.7803 7.39771 22.1791C6.44884 20.1901 3.84712 21.4141 3.66347 23.189C3.20434 27.6568 4.12259 32.094 7.55076 35.2153C9.14241 36.6536 11.1932 35.1847 10.9177 33.2568C10.3361 29.3092 9.01997 25.7289 6.93858 22.3628C5.9285 20.7409 3.11252 21.3223 3.20434 23.3726C3.47982 29.6459 5.92851 35.2459 10.3974 39.6831C11.4075 40.6623 13.4888 40.3257 13.7643 38.7956C14.101 36.8678 14.0704 35.1847 13.55 33.2874C13.0603 31.5125 9.99945 31.2371 9.69336 33.2874C9.35667 35.4601 9.75457 36.929 11.1014 38.6426C12.2339 40.0809 14.4989 38.7957 14.5295 37.235C14.5602 35.7661 14.5601 34.2667 14.5907 32.7978C13.2746 32.9814 11.9584 33.165 10.6422 33.318C10.9483 35.1847 11.3462 37.0208 11.836 38.8569C12.4481 41.0907 15.6621 40.5705 15.7845 38.3366C15.8151 37.4798 15.8763 36.623 15.9069 35.7355C16.0294 33.1344 12.0809 33.1956 11.8972 35.7355C11.7748 37.1738 11.6829 38.5814 11.5605 40.0197C12.9073 40.0197 14.2235 40.0197 15.5702 40.0197C15.6009 39.7443 15.6008 39.4689 15.6314 39.1935C15.8151 36.623 11.7748 36.623 11.6217 39.1935C11.5911 39.4689 11.5911 39.7443 11.5605 40.0197C11.3768 42.5902 15.3866 42.5902 15.5702 40.0197C15.6927 38.5814 15.7845 37.1738 15.9069 35.7355C14.5602 35.7355 13.244 35.7355 11.8972 35.7355C11.8666 36.5924 11.8054 37.4492 11.7748 38.3366C13.0909 38.153 14.4071 37.9694 15.7233 37.8164C15.2336 35.9803 14.8356 34.1749 14.5295 32.2776C14.1622 29.9825 10.6116 30.6251 10.581 32.7978C10.5504 34.2667 10.5504 35.7661 10.5198 37.235C11.6523 36.776 12.8155 36.2864 13.948 35.8273C13.8255 35.3377 13.7031 34.8481 13.5807 34.3891C12.2951 34.3891 11.0095 34.3891 9.72396 34.3891C10.1525 35.4907 10.2137 36.623 9.93825 37.7552C11.0708 37.4492 12.1727 37.1738 13.3052 36.8678C9.57094 33.1956 7.52014 28.636 7.27527 23.4032C6.02032 23.7398 4.79598 24.0764 3.54103 24.413C5.46937 27.5344 6.60188 30.7475 7.12223 34.3585C8.25475 33.7158 9.35666 33.0426 10.4892 32.4C7.79562 29.9519 7.42834 26.6775 7.76504 23.2196C6.51008 23.5562 5.28572 23.8928 4.03076 24.2294C4.97963 26.1879 5.43875 28.024 5.59179 30.1967C6.84675 29.8601 8.07112 29.5235 9.32607 29.1868C8.62207 27.7486 8.22414 26.4939 8.04049 24.8721C6.90797 25.3311 5.74485 25.8207 4.61233 26.2797C6.2652 28.0546 7.12225 30.0131 7.48955 32.3694C8.77512 32.0022 10.0607 31.6655 11.3462 31.2983C11.0401 29.4928 11.1014 28.0852 11.3156 26.3103C10.0607 26.6469 8.83631 26.9835 7.58136 27.3202C9.01996 29.4622 11.2544 34.9399 14.4071 35.0317C17.7128 35.1235 17.5598 30.7169 17.4986 28.5136C17.4374 26.6775 14.652 25.6065 13.7643 27.5038C13.0603 29.0338 12.3257 30.5333 11.6217 32.0634C12.8461 32.5836 14.0704 33.1038 15.2948 33.624C16.3048 29.248 16.366 25.0251 15.5396 20.6185C15.1111 18.3234 11.6829 18.966 11.5911 21.1387C11.5299 22.6994 11.4687 24.2906 11.4074 25.8513C12.7542 25.8513 14.0704 25.8513 15.4172 25.8513C15.5396 25.3005 15.6621 24.7497 15.7539 24.1988C14.5295 23.6786 13.3052 23.1584 12.0809 22.6382C11.5605 25.4535 11.132 28.2382 10.7953 31.0841C10.3974 33.6852 14.4377 33.6852 14.7438 31.1453Z" fill="white"/>
  <path d="M36.4146 15.1407C36.5983 14.6817 36.7819 14.2533 36.935 13.7943C37.1186 13.3353 36.9656 12.662 36.7207 12.2336C36.4759 11.8052 35.9861 11.4074 35.527 11.3156C34.3638 11.0401 33.4762 11.6828 33.0477 12.7232C32.864 13.1822 32.6804 13.6107 32.5273 14.0697C32.3437 14.5287 32.4967 15.2019 32.7416 15.6304C32.9865 16.0588 33.4762 16.4566 33.9353 16.5484C35.0985 16.7932 35.9861 16.1812 36.4146 15.1407Z" fill="white"/>
  <path d="M113.243 12.4478C113.243 12.8763 113.212 13.3047 113.212 13.7025C114.559 13.7025 115.875 13.7025 117.222 13.7025C117.252 11.1014 116.671 9.02049 115.293 6.8172C114.161 5.01172 111.773 5.92978 111.559 7.82706C111.345 9.87735 111.314 11.8358 111.529 13.9167C111.743 16.0282 114.926 16.7932 115.477 14.4369C115.814 12.9987 115.906 12.3561 115.997 10.8872C116.15 8.62269 112.6 8.19427 112.049 10.367C111.192 13.7331 109.753 19.8534 112.692 22.6381C116.089 25.8512 119.119 21.4752 120.038 18.5681C120.742 16.273 121.997 11.132 117.589 12.1724C114.069 13.0293 112.232 18.4457 112.692 21.5976C112.783 22.2403 113.487 22.8523 114.1 23.0053C118.079 23.9233 123.19 16.426 121.293 12.9069C117.956 6.7866 113.518 17.7419 113.059 20.0982C112.814 21.4446 113.61 22.5463 114.987 22.6381C119.272 22.9135 121.507 18.1397 123.068 14.8654C121.844 14.3451 120.619 13.8249 119.395 13.3047C118.538 15.3856 117.956 17.4665 117.62 19.7004C117.344 21.4446 118.905 22.7911 120.558 21.9648C123.711 20.3736 128.516 10.9178 122.578 10.4282C121.415 10.3364 120.68 11.438 120.558 12.4478C120.405 13.1517 120.405 13.8861 120.558 14.5899C120.772 16.6096 123.099 17.2829 124.292 15.5998C125.333 14.1615 125.455 12.9375 124.966 11.2544C124.507 9.66312 122.119 9.20411 121.293 10.7648C118.936 15.2632 116.61 19.731 114.253 24.2294C115.477 24.7496 116.701 25.2698 117.926 25.79C118.752 23.5867 119.181 21.414 119.364 19.0577C119.487 17.0992 116.487 16.273 115.63 18.0479C114.467 20.4654 113.947 22.6687 114.069 25.331C115.416 25.331 116.732 25.331 118.079 25.331C117.773 22.3321 116.579 20.2512 114.161 18.4151C113.365 17.8031 111.804 18.2315 111.406 19.1495C109.845 22.6687 110.763 25.6982 112.661 28.9114C113.487 30.319 115.967 30.166 116.334 28.4217C116.64 26.9223 116.763 25.637 116.64 24.1069C116.456 21.9036 113.365 21.3222 112.692 23.5867C111.957 26.0654 112.783 30.013 115.906 30.472C119.548 30.9923 120.527 25.484 121.078 23.0359C119.793 23.0359 118.507 23.0359 117.222 23.0359C117.283 23.4031 117.314 23.7703 117.375 24.1069C117.558 25.4534 119.303 25.8512 120.313 25.3004C122.242 24.26 123.252 22.9441 123.68 20.7714C123.986 19.2413 122.762 17.9867 121.201 18.2927C119.181 18.7211 118.201 19.731 117.711 21.72C117.069 24.2294 120.956 25.3004 121.568 22.7911C121.813 22.5769 122.027 22.3627 122.272 22.1791C121.446 21.3528 120.619 20.5266 119.793 19.7004C119.272 20.4042 118.783 21.108 118.262 21.8118C119.242 22.2097 120.221 22.6075 121.201 23.0053C121.14 22.6381 121.109 22.2709 121.048 21.9343C120.772 19.9452 117.589 20.0982 117.191 21.9343C117.069 22.4545 115.661 27.5037 116.548 24.6272C115.232 24.4436 113.916 24.2599 112.6 24.1069C112.783 25.2086 112.722 26.2796 112.416 27.3813C113.64 27.2283 114.865 27.0753 116.089 26.8917C115.11 25.2392 113.916 23.2195 114.834 21.1998C113.916 21.4446 112.998 21.6894 112.079 21.9343C113.273 22.7911 113.916 23.9539 114.008 25.3922C114.283 27.9015 118.14 28.0239 118.018 25.3922C117.926 23.4643 118.171 21.9036 119.028 20.1288C117.773 19.7922 116.548 19.4555 115.293 19.1189C115.14 21.1386 114.712 22.8829 114.008 24.7802C113.212 26.9223 116.64 28.3299 117.681 26.3409C120.038 21.8425 122.364 17.3747 124.721 12.8763C123.496 12.7233 122.272 12.5702 121.048 12.3866C120.956 12.8151 120.864 13.2129 120.772 13.6413C122.027 13.9779 123.252 14.3145 124.507 14.6511C124.353 13.9473 124.353 13.2129 124.507 12.5091C123.833 13.1823 123.16 13.8555 122.486 14.5287C122.639 14.5287 122.762 14.5593 122.915 14.5593C122.333 14.2227 121.752 13.8861 121.17 13.5801C121.997 15.1102 119.609 18.0173 118.446 18.5987C119.426 19.3637 120.405 20.0982 121.384 20.8632C121.721 18.6293 122.303 16.5484 123.16 14.4675C124.017 12.3866 120.466 10.8872 119.487 12.9069C118.783 14.4369 117.069 18.8435 114.865 18.6905C115.508 19.5474 116.15 20.3736 116.793 21.2304C117.099 19.6086 117.803 15.8446 119.64 15.0796C118.966 15.0796 118.293 15.0796 117.62 15.0796C117.589 14.8959 117.558 14.7123 117.528 14.5287C117.252 15.1714 116.977 15.7834 116.64 16.3954C116.456 16.7626 115.171 19.2413 115.018 19.2107C115.477 19.6698 115.967 20.1594 116.426 20.6184C116.334 20.037 117.987 16.273 117.864 16.1812C117.528 15.5998 117.191 15.0184 116.885 14.4369C116.854 15.2632 116.548 16.2424 116.242 17.0075C116.12 17.3747 116.028 17.7419 115.906 18.1091C115.232 19.3943 114.957 19.4249 115.079 18.2009C114.314 16.4872 115.385 13.1823 115.814 11.4686C114.498 11.285 113.181 11.1014 111.865 10.9484C111.743 11.7746 111.62 12.6009 111.467 13.4271C112.783 13.6107 114.1 13.7943 115.416 13.9473C115.232 11.8664 115.232 9.93854 115.446 7.85765C114.191 8.19427 112.967 8.53088 111.712 8.86749C112.722 10.4588 113.12 11.8052 113.09 13.7331C113.059 16.3036 117.038 16.3036 117.099 13.7331C117.099 13.3047 117.13 12.8763 117.13 12.4784C117.283 9.87733 113.273 9.87734 113.243 12.4478Z" fill="white"/>
  <path d="M130.138 38.4897C129.648 39.2241 129.434 39.9892 129.495 40.8766C129.648 42.4373 131.699 43.7531 132.924 42.2842C133.872 41.152 134.73 39.8667 134.332 38.3367C133.995 37.0514 132.832 36.011 131.485 36.0416C128.332 36.0722 126.251 40.7542 125.547 43.2329C125.271 44.2427 125.884 45.4668 126.955 45.7116C130.903 46.5684 131.699 40.2034 132.22 37.5104C132.587 35.705 130.291 33.9301 128.853 35.552C127.659 36.929 127.047 38.3979 127.077 40.2034C127.108 42.1312 129.863 43.0187 130.812 41.2132C131.883 39.2241 132.464 37.2044 132.648 34.9399C132.801 33.1957 130.352 32.3082 129.22 33.5323C127.873 35.0011 127.2 36.5924 127.139 38.5815C127.077 40.4788 130.046 41.458 130.873 39.5913C131.424 38.3979 131.699 37.3574 131.607 36.0416C131.546 35.2459 131.026 34.2361 130.138 34.1137C125.945 33.5323 124.812 38.1837 125.057 41.5192C125.241 43.8755 128.149 44.1203 129.006 42.0394C129.648 40.4788 129.863 38.9181 129.679 37.2656C129.465 35.3377 127.108 34.4809 125.945 36.2558C124.292 38.7957 122.915 42.6515 123.894 45.7116C124.69 48.2209 127.873 48.9247 129.434 46.6908C130.567 45.0384 132.434 40.846 129.465 39.9891C126.282 39.0711 125.149 43.3859 124.965 45.6198C124.843 46.9051 126.343 47.9455 127.506 47.5477C131.087 46.3848 134.24 44.4263 136.811 41.7028C138.403 39.9891 136.413 37.541 134.393 38.5509C132.74 39.3465 131.546 40.4788 130.475 41.917C129.373 43.4165 131.179 45.2526 132.74 44.8548C135.831 44.0897 137.484 41.152 136.842 38.0919C136.627 37.0208 135.372 36.4088 134.362 36.6842C132.924 37.082 131.852 37.9083 131.179 39.2547C130.046 41.5498 133.505 43.6001 134.638 41.2744C134.73 40.846 134.974 40.6318 135.403 40.5706C134.576 40.1116 133.75 39.6219 132.924 39.1629C133.138 40.1422 132.495 40.7542 131.638 40.9684C132.403 41.9476 133.138 42.9269 133.903 43.9061C134.576 42.9881 135.403 42.4679 136.382 41.9782C135.587 40.9378 134.76 39.8667 133.964 38.8263C131.852 41.0908 129.373 42.7127 126.404 43.6613C127.261 44.3039 128.087 44.9466 128.944 45.5892C128.944 45.4362 129.495 43.8755 128.914 43.9061C128.455 43.7225 127.965 43.5083 127.506 43.3247C127.567 43.4165 127.628 43.5083 127.72 43.5695C127.536 42.9269 127.383 42.2536 127.2 41.611C127.077 42.3148 126.679 42.8963 126.496 43.5695C125.822 44.4875 126.22 44.6711 127.69 44.1509C127.659 43.7837 127.659 43.4165 127.69 43.0493C127.812 41.2744 128.424 39.7137 129.404 38.2449C128.149 37.9083 126.924 37.5716 125.669 37.235C125.822 38.6121 125.669 39.7137 125.149 40.9684C126.465 41.152 127.781 41.3356 129.098 41.4886C129.036 40.7848 129.006 40.1115 129.128 39.4077C129.22 38.8875 129.802 38.0307 129.098 37.9389C128.608 37.2962 128.118 36.6536 127.628 36.011C127.72 36.5312 127.659 37.0514 127.445 37.541C128.7 37.8777 129.924 38.2143 131.179 38.5509C131.21 37.6328 131.454 37.0208 132.097 36.317C130.965 35.858 129.802 35.3684 128.669 34.9093C128.516 36.4394 128.087 37.8165 127.353 39.1629C128.608 39.4995 129.832 39.8361 131.087 40.1727C131.056 39.4383 131.179 38.9181 131.669 38.3367C130.536 37.694 129.434 37.0208 128.302 36.3782C128.087 37.4492 127.873 38.4897 127.567 39.5301C127.445 39.9585 127.077 41.8864 126.802 42.07C127.322 42.0088 127.843 41.9476 128.363 41.8558C128.24 41.8252 128.118 41.7946 127.996 41.764C128.455 42.5903 128.944 43.4165 129.404 44.2427C129.648 43.3859 129.924 42.6209 130.352 41.8558C130.536 41.4886 130.781 41.1826 131.026 40.846C131.914 40.2034 131.577 39.7137 130.046 39.3771C131.179 39.8361 132.342 40.3258 133.475 40.7848C133.505 40.6624 133.536 40.54 133.566 40.4176C135.036 38.3673 131.577 36.3476 130.138 38.4897Z" fill="white"/>
</svg>