<svg xmlns="http://www.w3.org/2000/svg" width="136" height="156" viewBox="0 0 136 156" fill="none">
  <path d="M77.8651 3.0299C71.5291 2.87689 65.1931 3.39711 59.0101 4.65177C54.7249 5.5086 50.4091 6.73266 46.8585 9.27257C43.3079 11.8125 40.7368 15.5152 38.3493 19.1874C35.2884 23.9 32.35 28.735 30.2993 33.9678C25.9528 45.1373 25.8916 57.4696 25.8916 69.4654C25.8916 74.5146 25.8916 79.625 26.7486 84.613C27.8199 90.9475 30.238 96.9453 32.6255 102.913C35.5027 110.043 38.3799 117.234 42.5733 123.691C46.7667 130.148 52.3681 135.901 59.4081 138.992C64.7952 141.378 70.7639 142.113 76.6407 142.449C81.6299 142.725 86.9865 142.664 91.1493 139.91C94.0265 138.012 96.016 135.013 97.9137 132.137C103.638 123.324 109.331 114.357 112.667 104.412C114.718 98.3224 115.85 91.9879 116.646 85.6228C118.024 74.6676 118.422 63.5287 116.707 52.6346C114.993 41.7406 111.075 31.0607 104.433 22.2475C98.7708 14.7502 92.0369 5.2944 82.6706 4.71297L77.8651 3.0299Z" fill="#5543DF"/>
  <path d="M61.245 100.862C58.6738 100.985 58.6738 104.993 61.245 104.871C69.5399 104.534 76.2126 100.77 76.4575 91.8348C76.733 80.9407 76.8554 69.9855 76.733 59.0914C76.6411 51.1045 74.4679 44.4946 66.6933 41.1284C57.1128 36.9972 46.3692 37.1809 36.1459 37.3951C33.5748 37.4563 33.5442 41.465 36.1459 41.4038C44.2266 41.2508 52.4603 41.0366 60.3267 43.1481C64.214 44.1886 68.6829 45.6574 70.8561 49.3296C72.5702 52.2367 72.6926 55.7865 72.7232 59.0608C72.815 66.8641 72.6008 74.6981 72.5396 82.5014C72.509 86.3266 73.2129 91.0698 72.2029 94.8031C70.9173 99.6381 65.4689 100.709 61.245 100.862Z" fill="white"/>
  <path d="M107.709 41.8018C103.975 39.8127 99.8424 40.6695 95.8632 41.3734C90.6292 42.2608 85.5481 43.7297 80.5589 45.5964C78.1714 46.5144 79.2121 50.3702 81.6302 49.4521C85.242 48.0751 88.9151 46.9122 92.68 46.0554C96.0163 45.2903 100.852 43.7297 104.434 44.7395C104.862 45.4128 105.597 45.8412 106.576 45.5964C106.791 45.5352 107.005 45.474 107.25 45.4434C108.872 45.0455 109.209 42.5974 107.709 41.8018Z" fill="white"/>
  <path d="M45.573 71.8215C49.3685 72.9537 53.5619 72.9843 57.4798 72.7395C60.2345 72.5865 62.775 72.1275 64.6116 69.9242C64.9176 69.557 65.0707 69.1591 65.1013 68.7613C65.4074 68.3329 65.5604 67.7821 65.3768 67.1395C63.8157 61.2946 63.173 52.3896 55.9799 50.8596C49.1848 49.4213 43.4304 54.6541 40.0634 59.9175C38.7473 61.9678 36.6965 64.5077 38.0127 66.9252C39.4513 69.5264 42.8794 71.0258 45.573 71.8215ZM44.2568 60.8662C46.6137 57.5306 51.4499 53.0934 55.9493 54.9907C59.6836 56.5514 60.4488 63.6509 61.3364 67.5373C60.1427 68.5471 58.3062 68.9449 56.3779 69.0367C56.9288 68.4247 57.6328 67.9351 58.0919 67.2313C59.1326 65.5788 59.3163 63.2225 57.6328 61.9372C56.1024 60.7438 54.1741 61.1416 52.7967 62.2738C52.6436 61.6924 52.4905 61.0804 52.3069 60.499C51.8478 59.0607 50.0419 58.5099 48.9399 59.6115C46.5525 61.9984 46.5219 65.1504 47.2259 68.2105C45.8485 67.9351 44.5017 67.4761 43.5528 66.6804C41.2878 64.7219 42.9101 62.7941 44.2568 60.8662Z" fill="white"/>
  <path d="M95.0372 51.1654C88.242 52.0223 84.4772 58.1119 82.0897 63.865C81.7224 64.7524 82.0284 65.4563 82.61 65.8847C82.6406 66.0377 82.7018 66.1907 82.7631 66.3131C87.5992 76.993 112.453 74.0246 108.26 60.9579C106.393 55.2354 101.434 50.3698 95.0372 51.1654ZM99.6897 65.3951C99.7203 65.0278 99.8733 65.3645 99.6897 65.3951V65.3951ZM102.291 66.8945C102.751 65.3033 102.75 63.3448 101.496 62.1207C100.057 60.7131 97.7613 61.2027 96.6288 62.7021C96.0778 61.2333 95.0065 59.7338 93.3842 59.5808C89.6806 59.2442 89.3745 64.6606 89.5582 67.8126C88.1808 67.1393 87.0177 66.0071 86.2219 64.2934C87.6298 61.0497 89.5276 57.7447 92.7415 56.0617C97.3022 53.6748 101.771 56.2147 103.791 60.56C105.138 63.4672 104.189 65.5481 102.291 66.8945Z" fill="white"/>
  <path d="M97.792 95.7518C91.7927 104.045 82.9774 108.91 72.8765 110.134C62.5002 111.389 52.9197 111.114 43.8596 105.33C42.3291 104.351 40.8599 105.789 40.8905 107.197C40.1559 107.901 39.9111 109.063 40.8599 109.951C51.4199 119.957 64.3368 135.809 80.8961 129.138C93.7211 123.966 101.741 110.349 101.526 96.7616C101.496 94.6501 98.9245 94.2217 97.792 95.7518ZM78.6616 125.71C66.8161 129.842 57.0213 120.539 48.8794 112.276C57.0825 115.306 65.8059 115.184 74.8661 113.868C83.4977 112.644 91.0581 108.757 96.9962 102.759C95.1596 112.827 88.487 122.283 78.6616 125.71Z" fill="white"/>
  <path d="M135.042 91.4676C134.889 74.9123 135.409 57.1329 130.022 41.2509C127.39 33.5393 123.013 26.8988 118.207 20.3808C113.8 14.3829 109.055 8.99707 102.199 5.75333C87.1089 -1.34618 69.0499 -1.59099 53.2558 3.45823C52.8579 3.21342 52.3375 3.15222 51.7254 3.36643C25.8305 13.2813 13.8931 44.2804 7.34282 68.9756C3.33309 84.0009 1.15988 99.5158 0.302834 115.061C-0.125687 122.742 -0.217528 130.484 0.823166 138.104C1.52716 143.337 2.26179 152.67 8.26108 154.721C14.995 157.016 22.0656 151.538 26.9936 147.713C33.4826 142.664 39.0228 136.666 43.7365 129.933C45.2057 127.822 41.7469 125.802 40.2777 127.914C39.084 129.627 37.7984 131.311 36.4822 132.902C34.156 130.392 32.6256 127.241 31.5543 124.027C30.5748 121.09 30.085 118.152 28.4016 115.52C27.0242 113.348 23.5348 115.367 24.9428 117.54C26.9324 120.661 27.3303 124.578 28.7995 128.006C30.0544 130.943 31.6155 133.667 33.8499 135.962C31.9522 138.043 29.932 140.032 27.7894 141.899C26.0753 143.398 23.1369 146.03 19.923 148.141C17.4131 128.801 17.9946 109.186 21.5452 89.9988C22.0043 87.4894 18.1477 86.3878 17.6885 88.9277C13.9237 109.186 13.4339 129.75 16.1887 150.192C13.0666 151.538 10.0058 151.813 7.86316 149.549C6.08785 147.682 5.5981 142.358 5.16958 139.94C4.5268 136.299 4.22071 132.626 4.09828 128.924C3.88402 122.375 4.22071 115.765 4.71045 109.247C6.70001 83.2971 12.6381 56.6739 25.4631 33.8147C29.779 26.1032 35.1967 18.7283 42.1755 13.3425C41.1654 19.2791 40.6756 25.2158 40.7369 31.2442C40.7369 32.0399 41.349 33.0497 42.2061 33.1721C51.1438 34.6104 60.1733 35.1918 69.2029 34.641C78.5385 34.0595 87.7823 32.3153 97.1486 32.9885C98.3117 33.0803 99.0464 32.0093 99.1688 30.9688C99.5055 27.3579 99.8728 23.7469 100.209 20.1665C100.454 17.596 96.4446 17.6266 96.1998 20.1665C95.9243 23.0737 95.6488 25.9808 95.3427 28.8879C94.3632 28.8573 93.4144 28.8267 92.4349 28.8267C92.3124 28.7349 92.19 28.6431 92.037 28.5513C92.0063 27.3885 92.3737 25.8584 92.4349 24.971C92.5267 23.4409 92.6491 21.9108 92.741 20.3502C92.9246 17.7796 88.8843 17.7796 88.7312 20.3502C88.6088 22.4004 88.4557 24.4507 88.3333 26.501C88.2721 27.3273 88.1802 28.1535 88.1802 28.9185C87.4762 28.9491 86.7722 29.0103 86.0376 29.0409C85.9458 28.8267 85.8234 28.6431 85.6398 28.4595C85.5786 28.3983 85.548 28.3371 85.4867 28.3065C85.4255 28.2453 85.3642 28.1535 85.2724 28.0923C85.303 27.2967 85.3337 26.1032 85.3337 26.1032C85.3031 25.0016 85.2418 23.9305 85.2112 22.8289C85.1194 20.6562 85.0582 18.4835 84.9663 16.3108C84.8745 13.7403 80.8648 13.7097 80.9566 16.3108C81.0791 19.4015 81.1709 22.4616 81.2933 25.5524C81.3239 26.807 81.2015 28.1841 81.4158 29.4387C79.2119 29.653 77.0081 29.8978 74.8349 30.112C73.5493 24.8792 73.9473 19.1261 73.7636 13.7709C73.6718 11.2004 69.662 11.1698 69.7538 13.7709C69.9069 19.2485 69.5702 25.0628 70.7946 30.4792C70.764 30.4792 70.7027 30.4792 70.6721 30.4792C68.4989 30.6322 66.3257 30.724 64.1524 30.7852C63.6015 23.1349 63.4179 15.4539 63.6321 7.77302C63.6933 5.2025 59.6836 5.2025 59.6224 7.77302C59.4387 15.4539 59.6224 23.1349 60.1428 30.7852C58.0614 30.7546 55.9494 30.6628 53.868 30.5098C53.1028 28.2453 53.5925 25.2464 53.5619 22.9513C53.5313 20.2278 53.5007 17.5348 53.4395 14.8113C53.4088 12.2408 49.3991 12.2102 49.4297 14.8113C49.4909 18.4223 49.5216 22.0638 49.5828 25.6748C49.6134 27.2355 49.5828 28.7043 49.797 30.1732C48.0829 29.9896 46.3688 29.7754 44.6547 29.5306C44.6854 23.7775 45.2057 18.0551 46.277 12.3632C46.3995 11.69 46.2158 11.1086 45.8485 10.6801C46.8586 10.0681 47.8993 9.48669 48.94 8.93587C49.246 8.99707 49.6133 8.99707 50.0113 8.84406C62.2241 4.07026 75.6001 2.7544 88.4558 5.53912C94.9142 6.94678 101.526 9.11947 106.668 13.4343C111.32 17.3206 114.81 22.5535 118.238 27.4803C125.89 38.4967 129.012 50.6149 130.022 63.8346C131.002 76.8708 130.971 89.9987 130.971 103.066C130.941 117.877 131.063 132.841 127.084 147.193C125.033 147.162 122.676 144.989 120.595 142.572C121.36 142.358 121.972 141.746 122.033 140.736C123.013 124.303 123.227 107.839 122.768 91.3452C122.707 88.7747 118.667 88.7441 118.758 91.3452C119.217 107.38 119.003 123.446 118.085 139.481C117.289 138.471 116.616 137.584 116.157 137.033C114.687 135.319 113.218 133.606 111.78 131.892C111.81 131.831 111.841 131.77 111.871 131.708C113.524 127.638 114.932 123.507 116.065 119.254C116.738 116.744 112.851 115.704 112.208 118.183C111.29 121.641 110.188 125.068 108.902 128.403C108.168 127.516 107.433 126.598 106.698 125.71C105.076 123.721 102.23 126.567 103.852 128.556C109.3 135.258 114.749 142.572 121.054 148.478C122.89 150.192 125.309 151.813 127.941 151.324C131.461 150.681 131.492 146.611 132.134 143.735C136.022 126.69 135.195 108.757 135.042 91.4676ZM89.5576 28.8573C89.527 28.8879 89.527 28.8879 89.5576 28.8573C89.527 28.8573 89.527 28.8573 89.5576 28.8573Z" fill="white"/>
</svg>