<svg xmlns="http://www.w3.org/2000/svg" width="120" height="164" viewBox="0 0 120 164" fill="none">
  <path d="M43.6319 12.2642C38.6121 13.1211 33.7453 15.049 29.4907 17.8643C19.2368 24.719 12.5641 36.0415 9.22778 47.9148C7.72795 53.3006 6.8403 58.8394 6.80969 64.4089C6.77909 73.7423 9.10535 82.8921 10.3603 92.1337C11.248 98.6824 11.554 105.476 10.0542 111.963C8.52378 118.665 5.18743 123.837 6.31995 131.059C7.33004 137.577 11.5234 143.513 15.9311 149.052C18.1655 151.867 20.5224 154.683 23.522 156.886C26.8278 159.304 30.8375 160.895 34.939 161.966C48.7742 165.607 63.7724 163.343 75.7404 157.284C87.7084 151.194 96.7991 141.555 103.043 130.753C107.267 123.439 110.298 115.513 111.583 107.251C112.532 101.1 112.471 94.796 111.706 88.5227C110.879 81.7598 109.196 75.0275 106.38 68.6013C97.5337 48.4044 84.372 30.9616 65.915 16.2118C61.538 12.7233 53.8246 11.591 48.4069 11.7746C46.7846 11.8358 45.1929 11.9888 43.6319 12.2642Z" fill="#00AC47"/>
  <path d="M78.2818 54.7083C69.344 50.8526 58.08 43.3858 48.0404 47.0886C39.47 50.2711 34.4808 58.9313 33.287 67.6221C31.6648 79.5566 35.95 91.1239 36.3479 102.997C36.5009 107.373 34.2359 113.524 36.9907 117.349C39.2251 120.409 43.3573 121.052 46.8773 121.389C49.4484 121.633 49.4178 117.625 46.8773 117.38C45.2244 117.227 43.1736 117.104 41.735 116.156C39.1027 114.412 39.8985 111.719 40.174 109.056C40.6025 104.772 40.2658 100.488 39.7149 96.2343C38.5823 87.5741 36.2255 78.8528 36.9907 70.0396C37.6947 62.0527 41.7656 53.0865 50.0912 50.6384C54.4988 49.3531 58.784 50.7608 62.855 52.4744C67.3239 54.3411 71.7315 56.2996 76.1698 58.2275C78.5878 59.2067 80.6386 55.7488 78.2818 54.7083Z" fill="white"/>
  <path d="M93.4017 90.2977C92.6059 83.749 100.625 85.0955 103.013 89.1043C104.574 91.7666 104.972 95.2857 103.931 98.1929C102.401 102.446 98.7277 103.426 94.6567 102.599C92.4223 102.14 90.8612 101.498 89.0553 103.211C87.1882 104.986 90.0348 107.832 91.9019 106.057C92.1468 105.813 94.8403 106.731 95.3607 106.792C96.7687 106.975 98.1767 107.037 99.5847 106.792C102.125 106.333 104.329 105.017 105.89 102.936C108.737 99.2333 109.135 93.9699 107.635 89.6551C106.104 85.2179 102.248 81.4539 97.289 81.5151C92.5753 81.5457 88.8104 85.6157 89.392 90.2977C89.6981 92.8376 93.7078 92.8682 93.4017 90.2977Z" fill="white"/>
  <path d="M6.25921 120.899C10.6669 126.989 15.2275 133.262 21.6554 137.363C28.3587 141.647 36.8373 143.544 44.7037 144.003C59.2734 144.829 74.6083 138.005 79.169 123.225C79.6894 121.572 77.6998 120.042 76.2306 120.96C62.0588 129.682 43.816 138.005 27.3792 130.079C23.6755 128.305 20.5534 125.673 17.6762 122.796C15.4418 120.562 12.8707 116.584 9.90164 115.36C5.67765 113.616 3.87173 119.92 8.27938 120.471C10.8199 120.807 10.8199 116.768 8.27938 116.462C8.12634 116.431 8.0039 116.431 7.85086 116.401C8.43242 116.737 9.01399 117.074 9.59555 117.38C8.27938 118.573 8.30999 119.553 9.62616 120.287C10.2689 120.93 10.8811 121.572 11.5239 122.245C12.7789 123.531 14.0338 124.877 15.3194 126.132C17.6762 128.427 20.2168 130.63 23.0634 132.313C28.2668 135.404 34.2967 136.903 40.3266 137.148C54.1005 137.699 66.8337 131.456 78.2508 124.418C77.2713 123.653 76.2918 122.919 75.3123 122.154C71.0883 135.802 56.4268 141.035 43.2651 139.872C36.5924 139.29 29.3687 137.516 23.6755 133.874C17.8599 130.141 13.6971 124.357 9.71799 118.849C8.21816 116.829 4.72878 118.818 6.25921 120.899Z" fill="white"/>
  <path d="M14.8297 62.1137C14.0951 59.1148 12.9625 55.5957 9.99349 54.0656C7.11628 52.5967 3.87177 53.729 1.91281 56.1465C-4.08648 63.6438 5.58585 73.7422 9.56497 79.7095C10.3302 80.8418 11.677 80.9948 12.7177 80.1073C16.4519 76.9554 18.5333 72.457 22.3288 69.2133C25.9712 66.0919 27.9608 62.5728 28.4505 57.8296C28.5117 57.1563 28.022 56.4219 27.471 56.0853C24.3796 54.3104 20.9208 54.5858 17.8905 56.3913C15.5949 57.7378 11.1566 60.7979 10.4832 63.4602C10.269 64.2864 10.6057 65.2963 11.4015 65.7247C11.4933 65.7859 11.6158 65.8471 11.7076 65.8777C12.4116 66.2755 13.5747 66.2755 14.1257 65.5717C14.1869 65.5105 14.2481 65.4187 14.2787 65.3575C15.8704 63.3378 13.0238 60.4919 11.4321 62.5116C11.3709 62.5728 11.3097 62.6646 11.2791 62.7258C12.0749 62.634 12.9013 62.5116 13.6971 62.4198C13.6053 62.3586 13.5135 62.2974 13.3911 62.2668C13.6971 63.0318 14.0032 63.7662 14.3093 64.5313C14.3093 64.5925 17.0029 62.1137 17.6457 61.5935C19.8189 59.7268 22.543 57.8908 25.4203 59.5432C25.0836 58.9618 24.7469 58.3804 24.4408 57.799C23.8286 63.4602 19.8189 65.3881 16.3601 69.0908C13.9726 71.6614 12.5952 74.9663 9.90167 77.2308C10.9424 77.3532 12.0137 77.5062 13.0544 77.6286C10.5445 73.8953 7.63663 70.1925 5.52463 66.1837C4.88185 64.9903 4.3309 63.7662 4.17785 62.4198C4.02481 61.1957 4.3615 57.9826 6.1062 57.646C7.39176 57.4012 9.19767 58.6252 9.84045 59.6044C10.422 60.4613 10.6975 62.0831 10.973 63.1236C11.5851 65.6941 15.4724 64.6231 14.8297 62.1137Z" fill="white"/>
  <path d="M54.5293 69.1828C54.9578 61.8384 45.7446 58.5029 41.1533 64.1947C35.0316 71.7533 45.561 80.8113 49.8768 86.2583C50.5196 87.0539 52.0806 87.0233 52.7234 86.2583C55.6924 82.5861 58.5696 78.8528 61.355 75.0276C63.2221 72.4571 65.9769 69.3052 64.9974 65.8166C64.3241 63.4909 62.0896 62.0832 59.7021 62.4199C56.3352 62.9095 53.9783 66.0308 52.5091 68.8155C51.2848 71.08 54.7436 73.1303 55.9679 70.8352C56.3658 70.1008 59.8858 64.0723 60.3755 69.4582C60.4674 70.3762 58.0187 72.8243 57.4677 73.5893C55.0496 76.9249 52.5091 80.1686 49.9074 83.3818C50.8562 83.3818 51.8051 83.3818 52.754 83.3818C50.3971 80.4134 47.979 77.5063 45.6834 74.4768C44.1223 72.4265 42.2858 69.7642 43.9693 67.1019C46.1731 63.6133 50.7644 65.4494 50.5502 69.1216C50.3665 71.7839 54.3762 71.7533 54.5293 69.1828Z" fill="white"/>
  <path d="M63.1613 72.8243C67.9668 72.7937 72.7418 72.7326 77.5473 72.702C80.0878 72.6714 83.669 73.4058 85.5974 71.3249C87.3421 69.4276 84.5261 66.5817 82.7508 68.479C81.7101 69.5806 74.915 68.7238 73.5376 68.7238C70.0788 68.7544 66.62 68.785 63.1613 68.8156C60.5901 68.8156 60.5901 72.8243 63.1613 72.8243Z" fill="white"/>
  <path d="M24.3494 65.5105C27.5633 66.6427 30.9303 67.1017 34.3278 66.7957C36.8684 66.5815 36.899 62.5727 34.3278 62.7869C31.2364 63.0317 28.3285 62.6645 25.4207 61.6241C22.972 60.7979 21.9313 64.6536 24.3494 65.5105Z" fill="white"/>
  <path d="M56.7019 34.2362C65.2418 30.5335 74.5162 26.1269 78.9544 17.4055C81.1583 13.0601 85.168 -0.649281 75.9548 0.0239483C73.3837 0.207556 73.3837 4.21632 75.9548 4.03271C79.7809 3.7573 76.4751 13.0601 75.863 14.4678C74.6998 17.1913 72.8939 19.5476 70.7207 21.5673C66.16 25.8209 60.3138 28.3302 54.6512 30.7783C52.3249 31.8187 54.3757 35.2767 56.7019 34.2362Z" fill="white"/>
  <path d="M68.3021 39.4996C79.9334 38.1531 89.667 29.9826 92.6666 18.5989C93.34 16.0896 89.4527 15.0491 88.8099 17.5278C86.3 27.0448 78.1581 34.3279 68.3021 35.4908C65.7616 35.7662 65.731 39.8056 68.3021 39.4996Z" fill="white"/>
  <path d="M77.3621 45.0077C89.2689 43.7837 100.135 38.7038 108.583 30.1967C110.419 28.3606 107.573 25.5147 105.736 27.3507C98.0842 35.0623 88.167 39.8667 77.3315 40.9989C74.8216 41.2743 74.791 45.2831 77.3621 45.0077Z" fill="white"/>
  <path d="M87.4935 52.964C96.3394 52.199 104.665 49.5367 112.287 44.9159C114.49 43.5694 112.47 40.1115 110.266 41.4579C103.288 45.7115 95.6661 48.2514 87.4935 48.9552C84.953 49.1694 84.9224 53.1782 87.4935 52.964Z" fill="white"/>
  <path d="M94.5651 62.0529C101.85 61.8387 108.431 59.36 114.124 54.831C116.144 53.2091 113.298 50.3938 111.277 51.9851C106.472 55.8408 100.717 57.8605 94.5651 58.0441C91.9939 58.1359 91.9939 62.1447 94.5651 62.0529Z" fill="white"/>
  <path d="M98.2985 70.3153C105.583 70.0399 112.501 68.1733 118.99 64.8071C121.286 63.6137 119.265 60.1557 116.97 61.3492C111.123 64.4093 104.91 66.0618 98.2985 66.3066C95.7273 66.3984 95.7273 70.4072 98.2985 70.3153Z" fill="white"/>
  <path d="M5.43249 62.879C6.01405 65.2047 6.80987 68.5708 9.7177 68.5402C10.636 68.5402 11.3706 67.9282 11.646 67.0714C12.4725 64.5315 11.9827 60.3697 9.25857 59.0844C6.56501 57.8298 4.54484 60.1249 4.02449 62.6036C3.50414 65.0823 4.0857 70.1621 7.72813 69.7031C11.0339 69.2747 11.3706 63.8888 10.9114 61.4101C10.4217 58.7784 8.18726 55.2593 5.00396 57.0035C2.34101 58.4724 2.61649 63.4604 3.28988 65.8779C3.90205 68.0506 6.25892 70.9578 8.58518 68.7545C11.34 66.1533 9.93196 60.5533 8.58518 57.7074C7.81996 56.1161 5.34066 56.6057 4.91214 58.197C3.81023 62.2976 3.7184 71.8146 9.7177 72.3654C14.4314 72.7938 18.0432 65.4801 15.0436 62.0222C14.5539 61.4713 13.758 61.3795 13.0846 61.5019C9.28918 62.267 6.65683 70.4681 10.2687 72.6714C10.8502 73.008 11.7379 73.0692 12.2888 72.6714C14.5233 71.1414 17.6147 64.1949 13.1153 63.338C8.00361 62.3588 8.12605 71.6616 9.0137 74.4769C9.56465 76.16 11.7379 76.4048 12.6867 74.9665C13.7886 73.2834 14.2784 71.7228 14.4926 69.7031C13.1459 69.7031 11.8297 69.7031 10.4829 69.7031C10.4829 70.5599 10.4829 71.4168 10.4829 72.243C10.4829 74.4463 14.0029 75.0583 14.4314 72.7632C14.7987 70.8353 16.3904 69.8255 17.7372 68.5709C19.2676 67.1938 20.5838 65.6943 21.8387 64.0725C22.91 62.6648 21.9918 59.9719 19.8798 60.7063C17.1862 61.655 15.2579 63.185 13.8499 65.6943C12.9316 67.3468 14.86 69.6419 16.6046 68.4484C19.5125 66.4288 21.3796 63.9807 22.6652 60.7063C23.3385 58.9926 21.1347 57.6462 19.7267 58.4418C17.5841 59.6353 13.1459 65.8167 18.3187 66.0309C20.7674 66.1227 21.5939 64.0113 23.0325 62.6036C24.3792 61.2877 26.0015 61.1653 26.43 58.809C26.6749 57.4626 25.5118 55.7489 23.9507 56.3303C21.502 57.279 20.2471 58.9008 20.0328 61.5631C19.8492 64.1337 23.8589 64.1337 24.0425 61.5631C24.3486 61.1041 24.6853 60.6451 24.9914 60.2167C24.165 59.3904 23.3385 58.5642 22.5121 57.738C22.3591 58.5336 21.2878 58.4112 20.6144 58.9008C19.7573 59.5435 19.3594 62.0528 18.0126 61.9916C18.5942 62.3282 19.1758 62.6648 19.7573 62.9708C20.4613 63.5216 21.1041 63.1544 21.6857 61.8692C20.7062 61.1041 19.7267 60.3697 18.7472 59.6047C17.8596 61.8692 16.5128 63.5522 14.5539 64.9599C15.4721 65.8779 16.3904 66.796 17.3086 67.714C18.1351 66.2145 19.2676 65.1435 20.9205 64.5621C20.2777 63.4298 19.6043 62.3282 18.9615 61.1959C16.3598 64.5315 11.3093 67.2856 10.5135 71.6616C11.8297 71.8452 13.1459 72.0288 14.462 72.1818C14.462 71.325 14.462 70.4681 14.462 69.6419C14.462 67.0102 10.7278 67.1326 10.4523 69.6419C10.3605 70.866 9.93196 71.937 9.19735 72.8856C10.4217 73.0386 11.646 73.1916 12.8704 73.3752C12.5643 72.7326 12.4113 72.0594 12.4113 71.325C12.2582 70.4069 12.3194 69.5195 12.6255 68.6014C12.1664 68.1424 11.7073 67.6834 11.2481 67.2244C11.0951 67.9894 10.7584 68.6321 10.2687 69.1829C10.942 69.1829 11.6154 69.1829 12.2888 69.1829C12.2582 69.1523 13.7274 65.4495 14.156 65.3577C13.5132 65.1741 12.8398 65.0211 12.197 64.8375C12.5643 65.2659 10.0544 70.2539 8.70761 65.9697C8.00361 63.7358 8.15665 61.502 8.76883 59.2375C7.54448 59.3905 6.32014 59.5435 5.09579 59.7271C5.46309 60.5227 7.02414 65.1741 5.67736 65.7861C6.35075 65.7861 7.02413 65.7861 7.69752 65.7861C6.71805 65.1435 6.99353 62.9096 6.96292 61.9916C6.80987 58.1052 7.05474 63.2156 7.05474 63.185C6.96292 63.8582 6.87109 64.5009 6.80987 65.1741C7.88118 65.3883 8.21787 64.9905 7.85057 63.95C8.09544 64.2255 7.81996 65.7249 7.72813 66.0003C8.37092 65.5107 9.0137 65.0211 9.65648 64.5315C9.68709 63.6134 9.53404 62.6954 9.22796 61.8386C8.64639 59.3293 4.7897 60.3697 5.43249 62.879Z" fill="white"/>
  <path d="M45.7125 71.2331C45.6513 72.7326 46.2329 73.773 47.5796 74.4463C48.7734 75.0277 50.1202 74.5381 50.5181 73.2528C51.3445 70.6211 51.1915 66.6429 47.5796 66.3063C44.1821 66.0003 43.4169 69.8561 43.7536 72.4266C44.0902 74.9053 46.1716 76.9556 48.6203 75.2419C50.8854 73.62 50.7629 68.6932 49.3855 66.5817C47.8551 64.256 44.5188 64.562 42.9883 66.7347C41.3661 69.0298 42.2231 73.2528 44.3657 74.9971C49.8753 79.5873 53.3647 65.9085 47.7021 63.5522C47.0287 63.2768 46.2635 63.644 45.7431 64.0724C44.1209 65.4189 44.0903 68.5708 44.1821 70.4987C44.2739 72.6714 45.1309 74.9053 47.1205 76.0987C51.6506 78.7917 54.589 73.8036 55.0175 69.9785C53.6708 69.9785 52.3546 69.9785 51.0078 69.9785C50.9772 71.7227 50.4875 74.1097 52.1097 75.3337C53.5177 76.4047 55.2624 75.8233 56.3337 74.5993C58.3539 72.243 58.2927 66.7653 54.0687 67.2549C50.7017 67.6528 48.2224 73.2834 52.0179 74.8441C56.1195 76.5272 59.6394 71.4779 61.3229 68.5402C60.0986 68.02 58.8742 67.4998 57.6499 66.9795C57.5887 67.3774 57.5274 67.8058 57.4662 68.2036C57.2826 69.4277 57.956 70.7741 59.3946 70.7435C61.476 70.6823 63.0676 69.5807 63.3737 67.4386C63.5574 66.2145 62.884 64.8375 61.4454 64.8987C56.5786 65.1129 54.0075 72.1206 52.9055 76.0987C54.0381 75.7927 55.14 75.5173 56.2725 75.2113C55.2318 73.9566 54.7115 72.6102 52.6913 73.0692C50.2426 73.6506 49.9977 76.7414 49.5692 78.6998C50.8548 79.0671 52.1403 79.4037 53.4259 79.7709C53.8544 77.4758 53.6095 75.6091 52.6607 73.4976C52.0179 72.0594 49.9365 72.3348 49.2019 73.4976C48.0694 75.2725 47.6102 77.0168 47.7327 79.1283C47.8857 81.7294 51.5281 81.6988 51.7424 79.1283C51.8955 77.078 51.4363 75.3643 50.2426 73.7118C49.3855 72.5184 46.845 72.3042 46.5695 74.2015C46.1716 77.1392 46.5389 79.9545 49.7835 80.8725C51.0078 81.2091 52.3546 80.2299 52.324 78.9447C52.2628 76.1599 51.0996 74.1709 48.8652 72.549C47.1511 71.3249 45.2228 73.6506 46.1104 75.3031C46.8144 76.5578 47.6102 77.1392 48.957 77.6594C51.3751 78.5774 52.4158 74.7217 50.0283 73.8036C49.8753 73.6506 49.7222 73.467 49.5998 73.314C48.6815 74.2321 47.7633 75.1501 46.845 76.0681C47.9163 76.8026 48.4061 77.7818 48.3142 79.0059C49.1713 78.3632 49.9977 77.7206 50.8548 77.078C50.7323 76.4966 50.5793 75.9151 50.4569 75.3337C49.2325 75.4867 48.0082 75.6397 46.7838 75.8233C47.549 76.8944 47.8551 77.9042 47.7327 79.2201C49.0795 79.2201 50.3956 79.2201 51.7424 79.2201C51.6506 77.8736 51.9261 76.772 52.6607 75.6091C51.4975 75.6091 50.365 75.6091 49.2019 75.6091C49.7222 76.6496 49.8447 77.69 49.5692 78.7916C49.1101 81.301 52.8749 82.4026 53.4259 79.8627C53.5789 79.2201 53.7014 78.608 53.8544 77.9654C54.2523 77.1086 53.8238 76.7414 52.5382 76.8026C52.3546 76.9862 53.3647 78.0572 53.4259 78.1184C54.4054 79.3119 56.3949 78.5774 56.7928 77.231C57.2214 75.6397 59.2109 69.091 61.4454 68.9686C60.8026 68.1118 60.1598 67.2856 59.517 66.4287C59.4864 66.5511 59.4558 66.6735 59.3946 66.7959C60.0374 67.6528 60.6801 68.479 61.3229 69.3359C61.3841 68.938 61.4454 68.5096 61.5066 68.1118C61.7821 66.0309 59.0885 64.4396 57.8335 66.5511C56.8235 68.2954 55.8134 69.4276 54.4054 70.7741C53.6708 71.4779 54.7421 72.09 53.6402 71.0495C55.4461 72.7632 54.9563 71.1719 54.9869 69.9785C55.0481 67.3468 51.2527 67.4692 50.9772 69.9785C51.2221 71.2331 50.7629 71.8145 49.6304 71.7533C48.2836 72.4572 47.7939 71.8451 48.1612 69.9173C48.1306 69.244 48.3449 67.0714 48.5591 66.8877C47.9163 67.0714 47.2429 67.2243 46.6002 67.408C46.5389 67.3774 46.2941 71.2637 46.2329 71.2943C46.5695 71.1107 46.4165 68.0812 46.141 69.9479C45.9574 71.1413 45.8043 72.5184 47.7021 71.4473C47.7021 71.1107 47.7021 70.8047 47.7021 70.4681C47.0287 70.8353 46.6614 71.4167 46.6308 72.1818C47.6102 71.784 48.5897 71.3861 49.5692 70.9883C49.5998 71.0801 49.6304 71.1413 49.6916 71.2331C49.8141 68.6626 45.8043 68.6626 45.7125 71.2331Z" fill="white"/>
</svg>