<svg width="19" height="19" viewBox="0 0 19 19" fill="none" xmlns="http://www.w3.org/2000/svg">
<g id="basic / phone">
<path id="basic / phone_2" d="M13.4463 16.2548H13.4253C10.544 16.1839 7.79447 15.0334 5.72126 13.0313C3.7184 10.96 2.56728 8.2115 2.49618 5.33108C2.49193 4.92758 2.65036 4.53935 2.93576 4.25408L4.97126 2.22008C5.26414 1.92729 5.73889 1.92729 6.03176 2.22008L9.03176 5.22008C9.32455 5.51295 9.32455 5.9877 9.03176 6.28058L7.83476 7.47533C8.05677 8.30477 8.46572 9.07238 9.03026 9.71933C9.67605 10.2841 10.4427 10.6933 11.2713 10.9156L12.4713 9.72008C12.7641 9.42729 13.2389 9.42729 13.5318 9.72008L16.5318 12.7201C16.8245 13.013 16.8245 13.4877 16.5318 13.7806L14.4963 15.8153C14.2187 16.0958 13.8408 16.2539 13.4463 16.2548ZM5.50001 3.81158H5.49626L3.99626 5.31458C4.05742 7.80357 5.051 10.1789 6.78026 11.9701C8.57159 13.6987 10.9464 14.6922 13.435 14.7541L14.9403 13.2503L12.9963 11.3116L12.0265 12.2806C11.8878 12.4209 11.6988 12.5 11.5015 12.5003C11.4488 12.5003 11.3963 12.4948 11.3448 12.4838C10.095 12.2074 8.93455 11.6217 7.96976 10.7806C7.1286 9.81579 6.54297 8.65535 6.26651 7.40558C6.21436 7.15715 6.29141 6.89921 6.47126 6.72008L7.44026 5.75033L5.50001 3.81158Z" fill="#F56522"/>
</g>
</svg>
