<svg xmlns="http://www.w3.org/2000/svg" width="60" height="61" viewBox="0 0 60 61" fill="none">
  <path d="M21.875 6.82666H10.625C7.5184 6.82666 5 9.34506 5 12.4517V23.7017C5 26.8083 7.5184 29.3267 10.625 29.3267H21.875C24.9816 29.3267 27.5 26.8083 27.5 23.7017V12.4517C27.5 9.34506 24.9816 6.82666 21.875 6.82666Z" fill="white"/>
  <path d="M48.125 6.82666H36.875C33.7684 6.82666 31.25 9.34506 31.25 12.4517V23.7017C31.25 26.8083 33.7684 29.3267 36.875 29.3267H48.125C51.2316 29.3267 53.75 26.8083 53.75 23.7017V12.4517C53.75 9.34506 51.2316 6.82666 48.125 6.82666Z" fill="white"/>
  <path d="M21.875 33.0767H10.625C7.5184 33.0767 5 35.5951 5 38.7017V49.9517C5 53.0583 7.5184 55.5767 10.625 55.5767H21.875C24.9816 55.5767 27.5 53.0583 27.5 49.9517V38.7017C27.5 35.5951 24.9816 33.0767 21.875 33.0767Z" fill="white"/>
  <path d="M48.125 33.0767H36.875C33.7684 33.0767 31.25 35.5951 31.25 38.7017V49.9517C31.25 53.0583 33.7684 55.5767 36.875 55.5767H48.125C51.2316 55.5767 53.75 53.0583 53.75 49.9517V38.7017C53.75 35.5951 51.2316 33.0767 48.125 33.0767Z" fill="white"/>
</svg>