<svg xmlns="http://www.w3.org/2000/svg" width="100" height="100" viewBox="0 0 100 100" fill="none">
  <path d="M70.8335 76.7919H54.1668L35.6251 89.1251C32.8751 90.9584 29.1668 89.0003 29.1668 85.6669V76.7919C16.6668 76.7919 8.3335 68.4586 8.3335 55.9586V30.9583C8.3335 18.4583 16.6668 10.125 29.1668 10.125H70.8335C83.3335 10.125 91.6668 18.4583 91.6668 30.9583V55.9586C91.6668 68.4586 83.3335 76.7919 70.8335 76.7919Z" stroke="white" stroke-width="4" stroke-miterlimit="10" stroke-linecap="round" stroke-linejoin="round"/>
  <path d="M50.0001 47.3333V46.4584C50.0001 43.6251 51.7502 42.125 53.5002 40.9167C55.2085 39.75 56.9166 38.2501 56.9166 35.5001C56.9166 31.6667 53.8334 28.5833 50.0001 28.5833C46.1667 28.5833 43.0835 31.6667 43.0835 35.5001" stroke="white" stroke-width="4" stroke-linecap="round" stroke-linejoin="round"/>
  <path d="M49.9811 57.2916H50.0186" stroke="white" stroke-width="4" stroke-linecap="round" stroke-linejoin="round"/>
</svg>