<svg xmlns="http://www.w3.org/2000/svg" width="51" height="50" viewBox="0 0 51 50" fill="none">
  <path d="M34.229 4.16663H16.7707C9.18734 4.16663 4.6665 8.68746 4.6665 16.2708V33.7083C4.6665 41.3125 9.18734 45.8333 16.7707 45.8333H34.2082C41.7915 45.8333 46.3123 41.3125 46.3123 33.7291V16.2708C46.3332 8.68746 41.8123 4.16663 34.229 4.16663ZM16.3957 37.8125C16.3957 38.6666 15.6873 39.375 14.8332 39.375C13.979 39.375 13.2707 38.6666 13.2707 37.8125V33.5C13.2707 32.6458 13.979 31.9375 14.8332 31.9375C15.6873 31.9375 16.3957 32.6458 16.3957 33.5V37.8125ZM27.0623 37.8125C27.0623 38.6666 26.354 39.375 25.4998 39.375C24.6457 39.375 23.9373 38.6666 23.9373 37.8125V29.1666C23.9373 28.3125 24.6457 27.6041 25.4998 27.6041C26.354 27.6041 27.0623 28.3125 27.0623 29.1666V37.8125ZM37.729 37.8125C37.729 38.6666 37.0207 39.375 36.1665 39.375C35.3123 39.375 34.604 38.6666 34.604 37.8125V24.8541C34.604 24 35.3123 23.2916 36.1665 23.2916C37.0207 23.2916 37.729 24 37.729 24.8541V37.8125ZM37.729 18.2708C37.729 19.125 37.0207 19.8333 36.1665 19.8333C35.3123 19.8333 34.604 19.125 34.604 18.2708V16.25C29.2915 21.7083 22.6457 25.5625 15.2082 27.4166C15.0832 27.4583 14.9582 27.4583 14.8332 27.4583C14.1248 27.4583 13.4998 26.9791 13.3123 26.2708C13.104 25.4375 13.604 24.5833 14.4582 24.375C21.479 22.625 27.729 18.9375 32.6873 13.7291H30.0832C29.229 13.7291 28.5207 13.0208 28.5207 12.1666C28.5207 11.3125 29.229 10.6041 30.0832 10.6041H36.1873C36.2707 10.6041 36.3332 10.6458 36.4165 10.6458C36.5207 10.6666 36.6248 10.6666 36.729 10.7083C36.8332 10.75 36.9165 10.8125 37.0207 10.875C37.0832 10.9166 37.1457 10.9375 37.2082 10.9791C37.229 11 37.229 11.0208 37.2498 11.0208C37.3332 11.1041 37.3957 11.1875 37.4582 11.2708C37.5207 11.3541 37.5832 11.4166 37.604 11.5C37.6457 11.5833 37.6457 11.6666 37.6665 11.7708C37.6873 11.875 37.729 11.9791 37.729 12.1041C37.729 12.125 37.7498 12.1458 37.7498 12.1666V18.2708H37.729Z" fill="white"/>
</svg>