<svg xmlns="http://www.w3.org/2000/svg" width="60" height="60" viewBox="0 0 60 60" fill="none">
  <g clip-path="url(#clip0_31_11504)">
    <path d="M26.622 31.9021C30.588 31.9021 34.0223 30.478 36.8283 27.6682C39.6344 24.859 41.0568 21.4216 41.0568 17.4506C41.0568 13.4809 39.6344 10.0431 36.8279 7.23291C34.0214 4.42409 30.5876 3 26.622 3C22.6556 3 19.2222 4.42409 16.4162 7.23337C13.6102 10.0426 12.1873 13.4804 12.1873 17.4506C12.1873 21.4216 13.6102 24.8594 16.4166 27.6687C19.2231 30.4775 22.6569 31.9021 26.622 31.9021Z" fill="#FFF8F8"/>
    <path d="M51.8788 49.1367C51.7979 47.9676 51.6342 46.6923 51.3933 45.3456C51.15 43.9888 50.8368 42.7061 50.4619 41.5338C50.0746 40.3221 49.5479 39.1255 48.8968 37.9788C48.221 36.7887 47.4272 35.7523 46.5365 34.8995C45.6052 34.0073 44.4648 33.29 43.1462 32.7668C41.8321 32.2463 40.3758 31.9826 38.818 31.9826C38.2063 31.9826 37.6146 32.2339 36.472 32.9787C35.7688 33.4379 34.9462 33.9689 34.0281 34.5562C33.243 35.057 32.1795 35.5262 30.8659 35.951C29.5843 36.3661 28.283 36.5767 26.9986 36.5767C25.7143 36.5767 24.4134 36.3661 23.1305 35.951C21.8182 35.5266 20.7547 35.0574 19.9705 34.5566C19.0611 33.9748 18.2381 33.4438 17.5244 32.9783C16.3831 32.2335 15.791 31.9822 15.1792 31.9822C13.621 31.9822 12.1652 32.2463 10.8515 32.7672C9.53379 33.2895 8.393 34.0069 7.46071 34.8999C6.57048 35.7532 5.77627 36.7891 5.1014 37.9788C4.45076 39.1255 3.92403 40.3217 3.53629 41.5343C3.16182 42.7066 2.84862 43.9888 2.60537 45.3456C2.36441 46.6905 2.20072 47.9662 2.11979 49.1381C2.04024 50.2862 2 51.4777 2 52.6812C2 55.8132 2.99448 58.3487 4.95554 60.2187C6.89237 62.0639 9.45515 63 12.5716 63H41.4284C44.5449 63 47.1067 62.0643 49.044 60.2187C51.0055 58.3501 52 55.8141 52 52.6807C51.9995 51.4718 51.9588 50.2793 51.8788 49.1367Z" fill="#FFF8F8"/>
  </g>
  <defs>
    <clipPath id="clip0_31_11504">
      <rect width="60.0001" height="60" fill="white"/>
    </clipPath>
  </defs>
</svg>