<svg xmlns="http://www.w3.org/2000/svg" width="101" height="100" viewBox="0 0 101 100" fill="none">
  <path d="M75.5 78.5832H72.3333C69 78.5832 65.8333 79.8749 63.5 82.2082L56.3749 89.2499C53.1249 92.4582 47.8334 92.4582 44.5834 89.2499L37.4583 82.2082C35.125 79.8749 31.9167 78.5832 28.625 78.5832H25.5C18.5833 78.5832 13 73.0417 13 66.2084V20.7499C13 13.9165 18.5833 8.375 25.5 8.375H75.5C82.4167 8.375 88 13.9165 88 20.7499V66.2084C88 73 82.4167 78.5832 75.5 78.5832Z" stroke="white" stroke-width="4" stroke-miterlimit="10" stroke-linecap="round" stroke-linejoin="round"/>
  <path d="M50.5004 41.6667C55.8622 41.6667 60.2088 37.32 60.2088 31.9583C60.2088 26.5965 55.8622 22.2501 50.5004 22.2501C45.1386 22.2501 40.792 26.5965 40.792 31.9583C40.792 37.32 45.1386 41.6667 50.5004 41.6667Z" stroke="white" stroke-width="4" stroke-linecap="round" stroke-linejoin="round"/>
  <path d="M67.1668 65.2499C67.1668 57.7499 59.7085 51.6667 50.5002 51.6667C41.2918 51.6667 33.8335 57.7499 33.8335 65.2499" stroke="white" stroke-width="4" stroke-linecap="round" stroke-linejoin="round"/>
</svg>