<svg xmlns="http://www.w3.org/2000/svg" width="60" height="61" viewBox="0 0 60 61" fill="none">
  <path d="M51.3387 32.8564H46.6985C47.1715 34.1514 47.4299 35.5488 47.4299 37.0054V54.5425C47.4299 55.1498 47.3242 55.7327 47.1318 56.2748H54.8031C57.6687 56.2748 59.9999 53.9434 59.9999 51.078V41.5177C60 36.7419 56.1145 32.8564 51.3387 32.8564Z" fill="white"/>
  <path d="M12.5701 37.0054C12.5701 35.5487 12.8285 34.1514 13.3015 32.8564H8.66135C3.88548 32.8564 0 36.7419 0 41.5178V51.0781C0 53.9436 2.33122 56.2749 5.19681 56.2749H12.8681C12.6758 55.7325 12.5701 55.1498 12.5701 54.5425V37.0054Z" fill="white"/>
  <path d="M35.3041 28.344H24.696C19.9201 28.344 16.0347 32.2295 16.0347 37.0053V54.5425C16.0347 55.4991 16.8102 56.2748 17.7669 56.2748H42.2332C43.1899 56.2748 43.9654 55.4992 43.9654 54.5425V37.0053C43.9654 32.2295 40.0799 28.344 35.3041 28.344Z" fill="white"/>
  <path d="M30.0001 5.37817C24.2565 5.37817 19.5837 10.0509 19.5837 15.7946C19.5837 19.6905 21.734 23.0931 24.9096 24.8795C26.4158 25.7268 28.1523 26.211 30.0001 26.211C31.8479 26.211 33.5844 25.7268 35.0906 24.8795C38.2663 23.0931 40.4164 19.6904 40.4164 15.7946C40.4164 10.051 35.7437 5.37817 30.0001 5.37817Z" fill="white"/>
  <path d="M11.7092 15.0872C7.41373 15.0872 3.91919 18.5817 3.91919 22.8772C3.91919 27.1727 7.41373 30.6673 11.7092 30.6673C12.7989 30.6673 13.8364 30.4416 14.779 30.0359C16.4086 29.3343 17.7523 28.0923 18.5837 26.5366C19.1673 25.4448 19.4993 24.1992 19.4993 22.8772C19.4993 18.5818 16.0048 15.0872 11.7092 15.0872Z" fill="white"/>
  <path d="M48.291 15.0872C43.9955 15.0872 40.501 18.5817 40.501 22.8772C40.501 24.1993 40.833 25.4449 41.4166 26.5366C42.248 28.0924 43.5917 29.3344 45.2213 30.0359C46.1638 30.4416 47.2014 30.6673 48.291 30.6673C52.5865 30.6673 56.0811 27.1727 56.0811 22.8772C56.0811 18.5817 52.5865 15.0872 48.291 15.0872Z" fill="white"/>
</svg>